<svg width="48" height="48" viewBox="0 0 48 48" fill="none" xmlns="http://www.w3.org/2000/svg">
<path fill-rule="evenodd" clip-rule="evenodd" d="M35.1959 9.19376C35.1629 9.1932 35.0582 9.20125 34.9634 9.21167C34.7912 9.23059 34.7902 9.2304 34.2279 9.05099C33.7499 8.89848 33.6414 8.87107 33.5092 8.86946C33.4235 8.86841 33.2966 8.85846 33.2271 8.84735C33.1577 8.83627 32.9901 8.82741 32.8547 8.82771C32.7194 8.82799 32.5684 8.81439 32.5193 8.79747C32.4702 8.78056 32.3621 8.76481 32.2791 8.76247C32.1866 8.75987 32.0537 8.73256 31.9354 8.69183C31.8237 8.65337 31.655 8.57519 31.5346 8.50611C31.4202 8.44049 31.2703 8.3674 31.2014 8.34369C31.1326 8.32 30.9916 8.24998 30.8881 8.18812C30.7365 8.09746 30.6254 8.04998 30.3155 7.94325C29.8927 7.79767 29.8552 7.79223 29.2971 7.79517C29.1333 7.79604 28.9738 7.79504 28.9425 7.79297C28.9113 7.7909 28.8076 7.79949 28.712 7.81208C28.5873 7.82853 28.4755 7.81985 28.3155 7.7813C28.1928 7.75177 28.0201 7.71977 27.9314 7.71017C27.7835 7.69413 27.757 7.68495 27.6081 7.59823C27.3434 7.44397 25.9757 6.97976 25.7688 6.97393C25.6743 6.97126 25.5434 6.94401 25.4185 6.90102C25.2936 6.858 25.1676 6.83178 25.0812 6.83082C25.0054 6.82999 24.9035 6.82259 24.8547 6.81438C24.3929 6.73667 23.7592 6.79543 23.4209 6.94735C23.3129 6.99586 23.1592 7.06382 23.0792 7.09839C22.9151 7.16932 22.4967 7.58577 22.4303 7.74426C22.4063 7.80158 22.361 7.88796 22.3297 7.93621C22.2984 7.98447 22.2552 8.09301 22.2338 8.17744C22.2123 8.26187 22.1755 8.37799 22.152 8.43548C22.1285 8.49298 22.109 8.59895 22.1086 8.67096C22.1083 8.74298 22.0953 8.87772 22.0798 8.97042C22.0643 9.06307 22.0566 9.15331 22.0626 9.1709C22.0687 9.18851 22.0765 9.35141 22.0799 9.53289C22.0837 9.73496 22.1032 9.91233 22.1301 9.99055C22.1543 10.0608 22.1748 10.187 22.1756 10.271C22.178 10.5038 22.962 12.7777 23.1437 13.0789C23.2393 13.2372 23.283 13.339 23.3927 13.6574C23.5013 13.9729 23.5468 14.0788 23.6402 14.2344C23.7161 14.3607 23.8066 14.5555 23.9088 14.8119C23.9978 15.0356 24.0961 15.2506 24.1417 15.3214C24.1851 15.3888 24.2507 15.5303 24.2876 15.6359C24.3339 15.7682 24.3965 15.895 24.4891 16.0446C24.563 16.1639 24.636 16.2979 24.6513 16.3423C24.6665 16.3867 24.7147 16.4812 24.7582 16.5524C24.8017 16.6236 24.8826 16.7672 24.9379 16.8715C25.489 17.911 26.0151 18.5204 26.7555 18.9767C26.9444 19.0932 27.1539 19.2232 27.221 19.2658C27.3943 19.3757 28.3284 19.6992 28.4957 19.7073C28.5724 19.711 28.6689 19.737 28.7711 19.7812C28.9563 19.8615 29.2069 19.8191 29.3015 19.6915C29.3528 19.6224 29.3529 19.6224 29.6282 19.7008C30.0874 19.8315 30.3006 19.7887 30.2288 19.5801C30.1228 19.2725 29.6981 18.8889 29.2206 18.6694C29.0086 18.5719 28.5913 18.1675 28.4866 17.958C28.36 17.7048 28.4071 17.5922 28.8508 17.087C29.1495 16.747 29.3119 16.4665 29.3638 16.2013C29.4642 15.6874 29.6726 15.5395 29.9427 15.7904L29.999 15.8427C30.0258 15.8676 30.0467 15.8976 30.0563 15.9249L30.5563 17.3432C30.9395 18.4302 31.0851 18.8225 31.1248 18.8743C31.1542 18.9127 31.2362 19.0652 31.3071 19.2132C31.6405 19.9094 32.266 20.6255 33.0034 21.1551L33.3208 21.383C33.3361 21.394 33.3516 21.4023 33.3662 21.4073L33.8207 21.5638C34.2468 21.7105 34.3055 21.7257 34.3736 21.7067C34.441 21.688 34.5046 21.704 34.9223 21.8449C36.1283 22.2516 36.0577 21.6786 34.8046 20.8892C34.2341 20.5298 33.8963 20.0787 33.9259 19.7159C33.929 19.6777 33.9265 19.5732 33.9203 19.4838C33.9141 19.3944 33.9205 19.2731 33.9345 19.2144C33.9484 19.1556 33.9661 19.0024 33.9737 18.8738C34.017 18.1452 34.0976 18.1057 34.4506 18.6396C34.5371 18.7705 34.7803 19.114 34.991 19.403C36.3686 21.2924 37.3733 22.3479 38.1649 22.7372C38.2676 22.7877 38.4098 22.8645 38.481 22.9078C38.6463 23.0083 38.839 23.073 38.959 23.0683C39.0108 23.0662 39.208 23.1086 39.3972 23.1625C40.0754 23.3558 40.2778 23.3545 40.286 23.1568C40.2946 22.9508 39.8864 22.544 39.3523 22.2261C38.8968 21.955 38.7429 21.8203 38.5062 21.4856L38.3658 21.287C38.3553 21.2721 38.3473 21.2571 38.3424 21.2429L37.8365 19.7737C37.348 18.3549 37.3172 18.2723 37.1985 18.0627C36.9926 17.6991 36.5401 16.4315 36.5392 16.2158C36.5389 16.1305 36.5272 16.0018 36.5134 15.9297C36.3805 15.2385 36.9559 14.648 37.6883 14.724C37.7543 14.7308 37.8792 14.7252 37.9658 14.7114C38.0524 14.6976 38.164 14.6941 38.2137 14.7036C38.3063 14.7213 38.6093 14.7408 38.8554 14.7449C39.0505 14.7482 39.4362 14.883 39.6928 15.0376C40.7744 15.6892 41.357 14.8935 40.5449 13.8738C39.9551 13.1334 39.8126 12.9251 39.7389 12.6958C39.6801 12.5129 39.5543 12.3233 39.2864 12.014C39.1591 11.8669 39.1587 11.8662 39.0071 11.4604C38.8386 11.0096 38.8224 10.9836 38.5611 10.748C38.366 10.5722 38.0314 10.4596 37.8164 10.4975C37.6339 10.5297 37.5345 10.496 37.2759 10.3139C37.1268 10.2089 37.0066 10.1421 36.8333 10.068C36.7025 10.0121 36.5466 9.93376 36.487 9.89398C36.4274 9.8542 36.2766 9.77511 36.152 9.71818C36.0131 9.65471 35.8293 9.54986 35.6768 9.44697C35.3891 9.25291 35.2796 9.19526 35.1959 9.19376Z" fill="white"/>
</svg>
