<svg width="48" height="48" viewBox="0 0 48 48" fill="none" xmlns="http://www.w3.org/2000/svg">
<path fill-rule="evenodd" clip-rule="evenodd" d="M36.1597 29.4128C36.1788 29.4634 36.2355 29.5111 36.2877 29.5213L37.0931 29.6778C37.1518 29.6892 37.1804 29.6488 37.1565 29.5915C37.1012 29.459 37.0397 29.2941 36.9681 29.0863C36.9461 29.0225 36.9241 28.9588 36.9022 28.8955L36.8807 28.8333C36.5626 27.916 36.2636 27.0533 36.2826 26.3656C36.2865 26.2215 36.2857 26.0934 36.285 25.9799L36.285 25.9784C36.2819 25.5015 36.2805 25.2829 36.6429 25.2227C36.941 25.1733 37.4018 25.1976 37.6943 25.2251C37.7637 25.2316 37.776 25.1606 37.7159 25.0948V25.0948C37.6557 25.0288 37.6682 24.9577 37.7382 24.965C38.0108 24.9935 38.3758 25.0202 38.627 25.0367C38.6803 25.0402 38.6702 24.972 38.6121 24.9351V24.9351C38.5477 24.8943 38.5426 24.8118 38.6035 24.8199C38.8889 24.8578 39.1537 24.8441 39.3261 24.8215C39.3718 24.8155 39.3475 24.7487 39.2909 24.7224V24.7224C39.2282 24.6932 39.2039 24.6113 39.2564 24.6078C39.8633 24.5675 40.7395 24.3508 40.6144 24.3506C40.5587 24.3505 40.4562 24.315 40.3504 24.2706C40.2539 24.23 40.2167 24.115 40.2907 24.0989C40.6927 24.0117 40.9589 23.8385 41.0897 23.7157C41.1236 23.684 41.0841 23.6086 41.0169 23.5716V23.5716C40.9287 23.5231 40.8944 23.414 40.9571 23.3922C41.3052 23.2711 41.4701 23.0067 41.5331 22.8028C41.5515 22.7433 41.4608 22.6578 41.3898 22.6642L41.273 22.6747C41.2248 22.6791 41.1685 22.6373 41.1747 22.5931C41.1834 22.5301 41.2196 22.4405 41.3148 22.3306C41.4281 22.1997 41.5049 21.8811 41.5483 21.6155C41.5582 21.5548 41.3709 21.4021 41.3025 21.4058V21.4058C41.2443 21.4089 41.1839 21.3283 41.2039 21.2841C41.3039 21.0641 41.3225 20.8032 41.3155 20.6308C41.3135 20.5828 41.2488 20.5284 41.2007 20.5328V20.5328C41.1331 20.5388 41.0207 20.4139 41.0392 20.3579C41.1031 20.1653 41.1168 19.9063 41.1127 19.7238C41.1115 19.673 41.0503 19.6109 40.9914 19.5994V19.5994C40.9169 19.585 40.8466 19.4945 40.8726 19.4466L41.1486 18.9375C41.1712 18.8959 41.099 18.8172 41.0423 18.8215V18.8215C40.9928 18.8252 40.9271 18.7633 40.9324 18.7177L40.9892 18.2214C40.9971 18.1523 40.8982 18.0647 40.8343 18.0868C40.5169 18.1962 40.0907 18.4477 39.8218 18.6225C39.7719 18.655 39.6646 18.5923 39.6379 18.5147L39.6283 18.4867C39.606 18.4221 39.5257 18.3653 39.4759 18.3829C39.278 18.4529 39.0496 18.6263 38.9045 18.7541C38.8659 18.7881 38.7742 18.7501 38.7295 18.681L38.7245 18.6733C38.6842 18.6109 38.6045 18.5729 38.566 18.5998C38.3939 18.7203 38.1697 18.9486 38.0246 19.108C37.9906 19.1453 37.8972 19.1039 37.8607 19.0351V19.0351C37.8268 18.9711 37.7425 18.9297 37.7059 18.9598C37.5465 19.0909 37.2957 19.317 37.1319 19.4673C37.0985 19.4979 37.0164 19.4602 36.9826 19.3987V19.3987C36.9491 19.3378 36.8715 19.3035 36.8501 19.3436C36.7904 19.4556 36.7475 19.6363 36.7217 19.7865C36.7107 19.8504 36.6053 19.8321 36.5447 19.7548V19.7548C36.4856 19.6793 36.3841 19.6603 36.3738 19.7229C36.3361 19.9518 36.289 20.2509 36.2889 20.3025C36.2889 20.3038 36.2888 20.305 36.2887 20.3062C36.281 20.3801 36.085 20.2511 36.0878 20.3301L36.1042 20.7899C36.1064 20.8498 36.0348 20.8588 35.9662 20.8073L35.9413 20.7887C35.8657 20.7319 35.7896 20.7499 35.8052 20.8209L35.9264 21.3705C35.9416 21.4396 35.8557 21.4454 35.7916 21.3795V21.3795C35.7481 21.335 35.6967 21.3266 35.7002 21.371C35.7062 21.4462 35.7379 21.5813 35.8284 21.8032C36.0075 22.2423 35.6885 22.0456 35.509 21.9298C35.3296 21.814 34.6734 19.6651 34.8031 19.6364C34.8495 19.6297 34.9021 19.6243 34.9596 19.6185L34.9639 19.618C35.3027 19.5835 35.8078 19.532 36.1904 19.1244C36.4344 18.8644 36.6135 18.8462 36.8956 18.8175L36.8956 18.8175C37.133 18.7933 37.4434 18.7618 37.9268 18.5725C38.7021 18.269 38.5296 17.4772 38.3941 16.8554L38.394 16.8553C38.3446 16.6286 38.3001 16.4245 38.3083 16.2749C38.3228 16.0088 38.5983 15.9516 38.9189 15.885C39.2731 15.8115 39.6824 15.7265 39.8556 15.3358C40.1856 14.5914 39.8276 13.5515 39.2994 12.9907C38.9315 12.5999 38.8538 12.4619 38.7158 12.2167L38.7157 12.2164C38.6557 12.1097 38.5843 11.9827 38.4726 11.8058C38.2346 11.4288 37.8417 11.2219 37.5784 11.1327C37.5025 11.107 37.4281 11.0212 37.4308 10.9603C37.4507 10.5039 37.1359 10.0057 36.8628 9.57324L36.8627 9.57318L36.809 9.4879C36.6558 9.24406 36.613 9.04161 36.5639 8.80839C36.514 8.57178 36.4574 8.30346 36.2719 7.92808C35.9035 7.18267 35.405 6.87016 34.0391 6.06561C33.0141 5.46182 32.2124 5.54975 31.8837 5.68815C31.8488 5.70283 31.7919 5.68466 31.7473 5.64299C31.0231 4.96667 30.2571 4.4374 29.0631 4.10122C27.8264 3.75303 27.0582 3.79236 26.7387 3.99979C26.5858 4.09907 26.538 4.22496 26.4859 4.36211C26.4292 4.51149 26.3674 4.67423 26.1592 4.83048C25.982 4.96342 25.8012 4.89412 25.612 4.82164L25.612 4.82164C25.3748 4.73072 25.1245 4.63482 24.8522 4.9268C24.525 5.2777 24.7602 5.84216 24.9956 6.19922C25.0469 6.27703 25.0148 6.34851 24.9329 6.32633C23.7781 6.01374 23.3657 6.20371 23.0248 6.67396C22.7901 6.99765 23.0054 7.48911 23.2055 7.94563L23.2055 7.94564L23.2055 7.94565C23.312 8.18881 23.4142 8.42204 23.4417 8.61473C23.4798 8.88111 23.4144 8.99674 23.3516 9.10776L23.3516 9.10778C23.2837 9.22782 23.2188 9.34249 23.291 9.63658C23.3837 10.0136 23.6048 10.2243 24.0042 10.6048L24.0042 10.6049L24.0049 10.6055C24.205 10.7962 24.4499 11.0296 24.7458 11.3478C25.2862 11.9291 25.8651 12.2458 26.2425 12.3895C26.3397 12.4265 26.4247 12.5616 26.3732 12.6049C26.2947 12.6709 26.2031 12.7506 26.121 12.828C26.0673 12.8785 25.9947 12.8995 25.9213 12.9206C25.735 12.9743 25.5445 13.0293 25.6513 13.5722C25.7932 14.2935 26.316 14.7949 26.9429 15.3961L27.036 15.4855C27.5074 15.9386 27.7604 16 28.2439 16.1174L28.2441 16.1175L28.2452 16.1177C28.4463 16.1666 28.6873 16.2251 29.0005 16.3255C29.701 16.5502 29.827 16.6934 29.7909 16.7608C29.7756 16.7894 29.7642 16.8245 29.792 16.8676C29.9331 17.0868 30.067 17.1262 30.3326 17.2042L30.3327 17.2042L30.3339 17.2046C30.4448 17.2372 30.5786 17.2765 30.7453 17.3385C31.1537 17.4903 31.469 17.5277 31.6286 17.528C31.6726 17.5281 31.7288 17.5581 31.7656 17.6033C31.9967 17.8864 32.251 18.1231 32.6896 18.2824C33.0468 18.4122 33.2873 18.6093 33.5106 18.7923L33.5109 18.7926C33.5867 18.8548 33.6606 18.9153 33.7365 18.9711C33.9358 19.1176 33.9843 19.4025 34.0328 19.6875L34.0328 19.6875C34.057 19.83 34.0813 19.9724 34.1244 20.0976C34.1868 20.2788 34.2144 20.3591 34.2027 20.4164C34.1935 20.4619 34.1593 20.4929 34.098 20.5485C34.0767 20.5678 34.0521 20.5902 34.0241 20.6172C33.9676 20.6714 33.9134 20.7199 33.8615 20.7661C33.7592 20.8573 33.6663 20.9402 33.5846 21.0436C33.731 20.9283 33.9379 20.9508 34.1534 20.9927C34.3979 21.0402 34.486 21.2351 34.5822 21.448L34.5822 21.4481C34.5918 21.4696 34.6016 21.4912 34.6117 21.513C34.6619 21.6217 34.647 21.763 34.6287 21.9362L34.6286 21.9371L34.6286 21.9373C34.6069 22.1413 34.5806 22.3893 34.6504 22.6794C34.6835 22.8173 34.716 22.9372 34.7438 23.0399C34.8244 23.3374 34.8657 23.4898 34.7692 23.5111C34.6395 23.5399 34.2908 23.0947 33.9825 22.1993C33.7551 21.5388 33.3463 20.8111 33.1278 20.46C33.1023 20.419 33.0498 20.3945 33.0227 20.4101V20.4101C32.9882 20.43 32.9146 20.384 32.893 20.332C32.8526 20.2347 32.7956 20.1301 32.7358 20.0324C32.6966 19.9683 32.5235 19.9645 32.4972 20.004V20.004C32.4759 20.0359 32.4193 19.9773 32.4012 19.9262C32.3415 19.7579 32.2329 19.5857 32.152 19.4753C32.1309 19.4465 32.0937 19.4395 32.0892 19.4627V19.4627C32.0831 19.4945 32.0004 19.4642 31.9783 19.4239C31.8703 19.2272 31.6892 19.0002 31.5596 18.8524C31.5237 18.8115 31.4703 18.7944 31.4449 18.8144V18.8144C31.4145 18.8384 31.3464 18.8087 31.3103 18.7574C31.0689 18.4143 30.7716 18.1248 30.597 17.975C30.557 17.9406 30.5098 17.9333 30.4899 17.9563V17.9563C30.4542 17.9975 30.3187 17.9337 30.2621 17.8621C30.0711 17.6203 29.7118 17.328 29.4765 17.1547C29.4481 17.1338 29.4217 17.1435 29.4312 17.1709V17.1709C29.4447 17.2103 29.3462 17.2183 29.3086 17.1838C29.1131 17.0046 28.8447 16.822 28.654 16.7042C28.6069 16.6751 28.569 16.6941 28.5841 16.7379V16.7379C28.6049 16.7984 28.5051 16.821 28.4418 16.7762C28.2557 16.6447 28.0032 16.4969 27.8082 16.3895C27.7348 16.349 27.6793 16.3807 27.7025 16.4482L27.7078 16.4636C27.7347 16.5415 27.6551 16.5728 27.5703 16.5262C27.3964 16.4307 27.1971 16.3459 27.0523 16.2903C26.9911 16.2668 26.9532 16.299 26.9725 16.3552L26.9819 16.3826C27.0013 16.4388 26.951 16.4624 26.8905 16.4255V16.4255C26.8124 16.3778 26.7633 16.4323 26.8069 16.5062C26.8307 16.5466 26.8293 16.5597 26.7755 16.5129C26.6772 16.4274 26.4423 16.2789 26.2651 16.1721C26.2021 16.134 26.1513 16.1594 26.1714 16.218V16.218C26.1956 16.2881 26.112 16.3175 26.0358 16.2749C25.8494 16.1708 25.6001 16.0621 25.4056 15.984C25.341 15.9581 25.318 16.0126 25.369 16.0685V16.0685C25.4186 16.1229 25.3983 16.1778 25.3361 16.1573L24.8578 15.9996C24.7445 15.9623 24.7209 16.1384 24.824 16.2272C24.8787 16.2742 24.9306 16.3197 24.9767 16.3606C25.0275 16.4056 25.0357 16.4649 24.9933 16.4766V16.4766C24.9391 16.4915 24.9693 16.585 25.0399 16.6337C25.3256 16.831 25.7044 17.1601 25.9548 17.3891C26.0116 17.441 26.0083 17.5056 25.9498 17.5015V17.5015C25.8734 17.4963 25.8802 17.6535 25.9513 17.7242C26.1214 17.8931 26.3158 18.1152 26.4676 18.297C26.5298 18.3716 26.499 18.4395 26.4162 18.4133L26.3561 18.3942C26.2767 18.369 26.2523 18.4278 26.3202 18.4945C26.5346 18.7054 26.9119 19.0311 27.1788 19.2555C27.2258 19.2951 27.222 19.3488 27.1727 19.3393V19.3393C27.1132 19.3277 27.1152 19.4402 27.1742 19.4849C27.4551 19.6979 27.8783 20.0343 28.1931 20.2872C28.2575 20.339 28.2537 20.4119 28.1874 20.399V20.399C28.12 20.3859 28.1226 20.4502 28.1927 20.4914C28.4873 20.6648 28.9893 20.927 29.3199 21.0954C29.3763 21.1241 29.4131 21.1876 29.3925 21.2207V21.2207C29.3702 21.2564 29.4138 21.3203 29.4731 21.336C29.673 21.3891 30.0436 21.4747 30.3157 21.5359C30.3566 21.5451 30.3866 21.6 30.3564 21.6105V21.6105C30.3287 21.62 30.3508 21.6643 30.3889 21.6747C30.5867 21.7287 30.9488 21.8139 31.1891 21.8689C31.2234 21.8768 31.2532 21.9195 31.2372 21.938V21.938C31.2193 21.9586 31.2579 22.0069 31.2932 22.0079L31.7376 22.0204C31.7655 22.0212 31.7961 22.0595 31.7819 22.0759V22.0759C31.7671 22.093 31.8018 22.1342 31.8304 22.1339C32.0283 22.1317 32.1228 22.17 32.2196 22.2094L32.2196 22.2094L32.22 22.2095C32.2741 22.2315 32.329 22.2538 32.4031 22.2694C32.4117 22.2712 32.4208 22.2739 32.4298 22.2777C33.5623 22.7512 34.3118 23.4785 34.6588 24.1634C35.016 24.8041 35.1279 25.3794 35.2539 26.027L35.254 26.0271C35.2824 26.1737 35.3117 26.3241 35.3448 26.4799C35.4877 27.1545 35.2138 27.6673 35.0839 27.8307C35.1106 27.7999 35.2277 27.7292 35.4831 27.6926C35.7079 27.6604 35.7888 28.0142 35.8969 28.4865L35.897 28.487L35.897 28.4871C35.9424 28.6856 35.9926 28.905 36.0603 29.1255C36.0879 29.2156 36.1212 29.3115 36.1597 29.4128ZM35.5674 23.3966C35.4802 22.8837 35.5582 22.6671 35.6082 22.6229C35.7655 22.5048 35.805 22.5479 35.8732 22.6225L35.8732 22.6225L35.8738 22.6231C35.8919 22.6429 35.9122 22.665 35.9373 22.6868C36.0194 22.7583 36.0533 23.0359 36.0633 23.2215C36.0654 23.2616 36.017 23.2663 35.9721 23.2312V23.2312C35.9185 23.1893 35.8646 23.2056 35.8828 23.2582L36.0857 23.8477C36.1485 24.0301 36.0921 24.1248 36.0192 24.247L36.0192 24.2471C35.9767 24.3183 35.9287 24.3988 35.8955 24.5115C35.8054 24.8174 35.646 24.5977 35.6663 24.2513C35.6807 24.0056 35.6799 24.001 35.6392 23.7904C35.6225 23.704 35.5991 23.583 35.5674 23.3966Z" fill="white"/>
</svg>
