<svg width="48" height="48" viewBox="0 0 48 48" fill="none" xmlns="http://www.w3.org/2000/svg">
<path fill-rule="evenodd" clip-rule="evenodd" d="M30.7367 5.14315C30.6991 5.24947 30.6573 5.34399 30.6439 5.35325C30.6304 5.36251 30.5924 5.44329 30.5594 5.53277C30.5172 5.64718 30.4632 5.70488 30.3776 5.72722C30.3106 5.7447 30.2399 5.78675 30.2205 5.82069C30.2011 5.85463 30.165 5.88062 30.1402 5.87845C30.1155 5.87629 30.1008 5.90062 30.1076 5.93252C30.1143 5.96442 30.106 5.98931 30.0891 5.98783C30.0554 5.98488 30.0617 6.62195 30.0972 6.80577C30.1225 6.9366 30.1022 7.41639 30.0699 7.4528C30.0581 7.46611 30.0544 7.50458 30.0617 7.53827C30.0691 7.57193 30.0489 7.73385 30.0168 7.89803C29.9848 8.06221 29.9524 8.23016 29.9448 8.27124C29.9372 8.31232 29.9162 8.41295 29.898 8.49485C29.8371 8.76971 29.8333 8.79219 29.82 8.96241C29.8062 9.13866 29.5825 9.92289 29.4814 10.1491C29.3424 10.4604 28.9429 10.8971 28.8079 10.8853C28.78 10.8828 28.7607 10.897 28.7649 10.9167C28.8173 11.1633 27.3589 11.0946 26.8771 10.8278C26.8352 10.8046 26.7384 10.7801 26.6622 10.7734C26.5858 10.7668 26.5206 10.7478 26.5171 10.7314C26.5114 10.7046 26.2922 10.6223 26.0118 10.5417C25.9551 10.5254 25.8702 10.4951 25.8232 10.4744C25.7761 10.4537 25.6049 10.3862 25.4426 10.3246C25.2804 10.2629 25.1276 10.1961 25.1031 10.1761C25.0786 10.1561 25.0269 10.137 24.9882 10.1336C24.9496 10.1302 24.7514 10.0446 24.548 9.9433C24.3445 9.84201 24.1667 9.75814 24.1528 9.75693C24.1029 9.75256 23.0179 9.17407 22.9589 9.1204C22.9457 9.10835 22.8859 9.07302 22.826 9.04186C22.7661 9.0107 22.6087 8.92467 22.4762 8.85073C22.3206 8.76391 22.1784 8.71131 22.0746 8.70224C21.9862 8.6945 21.8905 8.66745 21.8617 8.64209C21.8284 8.61265 21.7206 8.59654 21.5636 8.59745C21.0225 8.6007 20.1502 8.54044 20.0598 8.49359C20.0092 8.46738 19.8862 8.4307 19.7863 8.41205C19.6864 8.39337 19.3947 8.33339 19.1381 8.27872C17.9582 8.02752 15.0818 7.86232 14.7359 8.02591C14.7023 8.04183 14.6548 8.05309 14.6305 8.05096C14.6062 8.04884 14.5618 8.08567 14.5319 8.13281C14.4942 8.1922 14.4214 8.22144 14.2947 8.22808C14.0249 8.24219 13.9807 8.25783 13.9968 8.33366C14.0311 8.49523 14.586 8.69224 15.1444 8.74108C15.7855 8.79718 15.7044 8.89372 15.0242 8.88386C14.0572 8.86988 13.8815 8.95773 14.3703 9.21067C14.6425 9.35149 15.8031 9.4887 16.1274 9.41836C16.3406 9.37216 16.7004 9.38755 16.7123 9.44339C16.7163 9.4623 16.6635 9.48068 16.5951 9.48421C16.201 9.50447 15.6538 9.55257 15.5559 9.5755C15.4936 9.59013 15.3783 9.59647 15.2997 9.58959C15.2211 9.58272 15.1501 9.59211 15.142 9.61045C15.1339 9.62879 15.0552 9.64964 14.967 9.65677C14.8789 9.66386 14.7825 9.6815 14.7528 9.69594C14.7231 9.71038 14.6521 9.728 14.595 9.73511C14.4414 9.7542 14.4897 9.84932 14.7085 9.95852C15.0294 10.1187 16.5107 10.1701 16.7861 10.0306C16.9023 9.97186 16.9369 9.99196 16.8505 10.0681C16.8081 10.1054 16.7409 10.1331 16.7012 10.1297C16.6615 10.1262 16.6217 10.1398 16.6128 10.1599C16.6039 10.18 16.5568 10.1929 16.5081 10.1887C16.4594 10.1844 16.406 10.1948 16.3894 10.2117C16.3727 10.2286 16.1797 10.3006 15.9604 10.3716C15.2446 10.6034 15.551 10.9295 16.386 10.8248C16.8017 10.7727 16.8128 10.7729 16.8684 10.8317C16.8983 10.8634 17.0008 10.9284 17.0963 10.9763C17.1917 11.0242 17.3022 11.08 17.3419 11.1003C17.3815 11.1206 17.4731 11.1328 17.5454 11.1274C17.6567 11.1192 17.6829 11.1306 17.7162 11.2016C17.7652 11.3061 18.0078 11.4205 18.2201 11.439C18.3076 11.4467 18.3828 11.4697 18.3872 11.4902C18.4036 11.5675 18.7318 11.7495 18.8779 11.7622C18.9584 11.7693 19.0386 11.7929 19.056 11.8148C19.1027 11.8731 19.3423 11.9825 19.5169 12.0251C19.6006 12.0455 19.7424 12.0973 19.832 12.1401C19.9215 12.183 20.102 12.2305 20.2331 12.2458C20.4179 12.2673 20.5307 12.3065 20.7351 12.4202C20.8801 12.5009 21.0959 12.6191 21.2146 12.683C21.3333 12.7469 21.4827 12.8427 21.5464 12.8959C21.6202 12.9573 21.7115 12.9969 21.7974 13.0044C21.8806 13.0117 21.99 13.0576 22.0824 13.1242C22.1649 13.1836 22.2596 13.2346 22.2929 13.2375C22.3261 13.2404 22.3801 13.2699 22.4128 13.303C22.4454 13.3361 22.5413 13.3897 22.6258 13.4222C22.7103 13.4547 22.8085 13.5069 22.8438 13.5381C22.8792 13.5694 22.9336 13.5972 22.9646 13.5999C22.9956 13.6026 23.0247 13.6222 23.0292 13.6435C23.0337 13.6647 23.0733 13.6853 23.1172 13.6891C23.161 13.693 23.2765 13.7458 23.3738 13.8064C23.4711 13.8671 23.5832 13.9196 23.6229 13.9231C23.6626 13.9266 23.735 13.958 23.7838 13.9929C23.8325 14.0278 23.9108 14.0603 23.9575 14.065C24.0043 14.0698 24.1291 14.1238 24.2349 14.1849C24.3406 14.2461 24.456 14.2989 24.4915 14.3023C24.5269 14.3056 24.5835 14.3364 24.6173 14.3706C24.6511 14.4049 24.7166 14.4365 24.7628 14.4408C24.8091 14.4451 24.9334 14.4987 25.0392 14.5598C25.145 14.621 25.2719 14.6746 25.3213 14.6789C25.3707 14.6832 25.4805 14.7185 25.5652 14.7572C25.6499 14.7959 25.782 14.8331 25.8587 14.8398C25.9354 14.8465 26.0015 14.8677 26.0056 14.8869C26.0163 14.9376 26.2748 15.0433 26.3846 15.042C26.4363 15.0413 26.5635 15.0771 26.6674 15.1216C26.8221 15.1877 26.8602 15.1935 26.8778 15.1537C26.9054 15.0913 27.118 15.1992 27.1362 15.2848C27.1453 15.3276 27.179 15.3375 27.2809 15.3273L27.3003 15.3253C27.3592 15.3194 27.4257 15.3705 27.4387 15.4318L27.4464 15.4681C27.4644 15.5529 27.4992 15.6346 27.5237 15.6496C27.5482 15.6647 27.5753 15.7101 27.5839 15.7507C27.6088 15.8674 27.913 15.97 27.987 15.8865C28.0324 15.8354 28.1144 15.8763 28.1325 15.959C28.1578 16.0745 28.2106 16.1343 28.3103 16.1605C28.401 16.1844 28.5299 16.7407 28.502 16.9876C28.4031 17.8639 28.4023 17.8573 28.6388 18.0518C28.8003 18.1846 28.8087 18.1993 28.8259 18.3821C28.8556 18.6964 28.8712 19.0205 28.8654 19.2015C28.8597 19.3788 28.8669 20.0922 28.8772 20.3649C28.8804 20.4513 28.8482 20.635 28.8055 20.7731C28.7629 20.9112 28.7323 21.1027 28.7375 21.1988C28.7608 21.6263 28.7662 21.9914 28.75 22.0281C28.7403 22.0501 28.7631 22.0952 28.8007 22.1284C28.8482 22.1704 28.8728 22.2372 28.8812 22.3473C28.8987 22.5757 29.0075 22.575 29.0247 22.3464C29.0331 22.235 29.0593 22.1786 29.1013 22.1821C29.1782 22.1884 29.2284 22.0291 29.1966 21.8795C29.184 21.8199 29.1892 21.7726 29.2083 21.7743C29.2273 21.7759 29.2606 21.676 29.2823 21.5522C29.304 21.4284 29.3352 21.3192 29.3517 21.3094C29.3681 21.2996 29.3608 21.1938 29.3354 21.0743C29.2931 20.8752 29.2936 20.7098 29.3369 20.5142C29.356 20.4283 29.3928 20.1849 29.4278 19.9149C29.4411 19.8117 29.4766 19.6543 29.5067 19.5651C29.5367 19.4759 29.5563 19.3792 29.5501 19.3501C29.5439 19.3211 29.5476 19.2685 29.5583 19.2332C29.608 19.0687 29.6454 18.9009 29.6515 18.8149C29.6651 18.624 29.8984 18.5433 30.0499 18.6771C30.2014 18.8109 30.3381 18.7398 30.4218 18.4838C30.4834 18.2957 30.4824 18.072 30.4167 17.31C30.4014 17.1324 30.4455 16.964 30.5219 16.9087C30.5794 16.8671 30.654 16.8879 30.667 16.9493C30.6739 16.9815 30.7145 17.0104 30.7583 17.0142C30.8017 17.018 30.8336 17.0037 30.8291 16.9824C30.8245 16.9612 30.8741 16.9484 30.9393 16.9541C31.0044 16.9598 31.0614 16.9819 31.0659 17.0032C31.0777 17.0588 31.2241 17.0638 31.2494 17.0095C31.3415 16.811 31.6141 16.7421 31.8353 16.8615C31.9043 16.8987 32.0061 16.9332 32.0618 16.9382C32.1173 16.9432 32.2027 16.9759 32.2515 17.0108C32.3003 17.0457 32.3998 17.08 32.4726 17.0871C32.5454 17.0941 32.6589 17.1362 32.7249 17.1807C32.791 17.2252 32.9313 17.2798 33.0367 17.302C33.1422 17.3243 33.2636 17.3622 33.3065 17.3864C33.3494 17.4105 33.5422 17.4549 33.735 17.485C33.9278 17.5151 34.0989 17.5565 34.1152 17.5769C34.1315 17.5974 34.1794 17.6171 34.2215 17.6208C34.2637 17.6245 34.3019 17.6451 34.3064 17.6665C34.311 17.688 34.3897 17.7095 34.4813 17.7143C34.7623 17.7291 35.6836 17.8679 35.7321 17.9028C35.7572 17.9209 35.9551 17.9547 36.1718 17.9778C36.3885 18.001 36.5849 18.0317 36.6082 18.046C36.6584 18.0768 36.9427 18.1185 37.6749 18.2025C38.1753 18.26 38.6829 18.3883 38.6985 18.4613C38.7066 18.4997 38.9152 18.5918 39.1007 18.6389C39.1887 18.6613 39.3118 18.7071 39.3742 18.7409C39.4366 18.7746 39.5621 18.8087 39.6532 18.8168C39.7442 18.8249 39.8333 18.8499 39.8513 18.8724C39.8692 18.8948 39.9262 18.9169 39.9779 18.9214C40.0297 18.9259 40.0866 18.948 40.1046 18.9704C40.1671 19.0486 40.3765 19.0382 40.381 18.9567C40.3864 18.8602 40.4567 18.8663 40.5504 18.9715C40.5907 19.0167 40.6531 19.0564 40.689 19.0595C40.7249 19.0626 40.8377 19.0989 40.9397 19.1401C41.1168 19.2116 41.1274 19.2117 41.1739 19.1416C41.2338 19.0514 41.2836 19.0536 41.3942 19.1513C41.5308 19.2719 41.7143 19.3394 41.991 19.3707C42.2476 19.3997 42.2498 19.4008 42.4766 19.6149C42.7121 19.8373 43.0895 20.0665 43.242 20.0798C43.29 20.084 43.3549 20.1102 43.3864 20.138C43.5265 20.2617 43.5178 20.1128 43.3745 19.9326C43.1402 19.6382 43.1071 19.5988 43.0431 19.5386C43.0092 19.5067 42.9469 19.4322 42.9046 19.3731C42.8624 19.314 42.7854 19.2368 42.7335 19.2015C42.6815 19.1663 42.636 19.1229 42.6322 19.1052C42.6285 19.0875 42.5603 19.0127 42.4809 18.9391C42.2766 18.7498 42.3006 18.6919 42.5063 18.8775C42.5195 18.8894 42.6768 19.014 42.8558 19.1545C43.0348 19.295 43.2254 19.448 43.2793 19.4946C43.3844 19.5855 43.5111 19.6708 43.6155 19.721C43.6511 19.7381 43.6912 19.7628 43.7047 19.776C43.8605 19.9282 44.4219 20.0517 44.3956 19.9279C44.3787 19.8485 43.7418 19.2619 43.0226 18.6635C42.2518 18.0221 42.048 17.8434 42.0652 17.824C42.0826 17.8045 42.2464 17.9299 42.4332 18.1056C42.4905 18.1596 42.5895 18.2318 42.6532 18.2661C42.7168 18.3004 42.8299 18.3812 42.9044 18.4458C43.2224 18.7209 44.0819 19.2804 44.2028 19.291C44.235 19.2938 44.265 19.3135 44.2695 19.3348C44.274 19.3561 44.3122 19.3765 44.3544 19.3802C44.3965 19.3839 44.4457 19.4052 44.4636 19.4277C44.5065 19.4813 44.7309 19.5003 44.7201 19.4494C44.7152 19.4267 44.7556 19.4239 44.8155 19.4429C45.0247 19.5091 44.9074 19.3305 44.5864 19.0941C44.4222 18.9731 44.2845 18.8583 44.2804 18.8389C44.2762 18.8196 44.2462 18.8015 44.2137 18.7986C44.1811 18.7958 44.151 18.7772 44.1468 18.7573C44.1426 18.7375 44.0974 18.7057 44.0464 18.6866C43.938 18.6461 43.8337 18.5603 43.8212 18.5013C43.8078 18.4384 43.847 18.4538 43.998 18.571C44.0738 18.6298 44.1611 18.6802 44.1921 18.6829C44.223 18.6856 44.2519 18.7052 44.2564 18.7264C44.261 18.7477 44.296 18.7679 44.3343 18.7712C44.3726 18.7746 44.4783 18.8182 44.569 18.8683C44.7568 18.9717 44.7962 18.9354 44.707 18.7409C44.6758 18.6729 44.6746 18.6267 44.7036 18.6094C44.7392 18.5883 44.7362 18.5722 44.6891 18.5306C44.6565 18.5018 44.6247 18.454 44.6184 18.4242C44.5785 18.2366 44.0347 17.6887 43.6201 17.4184C43.5276 17.3581 43.4491 17.2958 43.4456 17.2798C43.442 17.2638 43.4236 17.2494 43.4048 17.2477C43.3859 17.2461 43.1737 17.1165 42.9332 16.9598C42.6927 16.8031 42.4798 16.6735 42.4601 16.6717C42.4404 16.67 42.4206 16.6512 42.416 16.6299C42.4115 16.6087 42.3839 16.5892 42.3545 16.5866C42.3252 16.584 42.2165 16.5233 42.1131 16.4516C42.0096 16.3799 41.907 16.3197 41.8851 16.3178C41.8632 16.3159 41.842 16.2989 41.838 16.2802C41.834 16.2614 41.7975 16.2331 41.7569 16.2173C41.6741 16.1851 41.5378 16.1011 41.4477 16.027C41.4149 15.9999 41.3294 15.9498 41.2577 15.9157C41.1861 15.8815 41.1246 15.8404 41.1212 15.8243C41.1178 15.8082 41.0896 15.7928 41.0586 15.7901C41.0276 15.7874 40.9741 15.7614 40.9398 15.7323C40.8573 15.6624 40.5651 15.5192 40.4919 15.5128C40.4601 15.51 40.4303 15.4904 40.4258 15.4691C40.4213 15.4478 40.3821 15.4273 40.3386 15.4235C40.2952 15.4197 40.2564 15.4014 40.2525 15.3828C40.2448 15.3464 39.5275 15.0489 39.4261 15.0401C39.3924 15.0371 39.3619 15.0207 39.3583 15.0035C39.3546 14.9863 39.2692 14.9332 39.1685 14.8855C39.0678 14.8378 38.8808 14.7242 38.753 14.6331C38.6251 14.542 38.5081 14.4664 38.4928 14.4651C38.4776 14.4637 38.4183 14.4231 38.3609 14.3748C38.1936 14.2337 37.6655 13.8993 37.6012 13.8937C37.5687 13.8908 37.4729 13.8568 37.3882 13.8181C37.2809 13.7691 37.0933 13.7354 36.7708 13.7072C36.3002 13.666 35.6653 13.5644 35.1132 13.4418C34.9454 13.4046 34.6985 13.3499 34.5643 13.3203C34.0454 13.2057 33.1509 12.9441 32.9118 12.8369C32.8647 12.8158 32.78 12.7865 32.7236 12.7719C32.4849 12.7099 31.714 12.3649 31.4631 12.2079C31.1514 12.0128 30.6522 11.4113 30.6006 11.1686C30.5946 11.1402 30.5719 11.1155 30.5502 11.1136C30.5285 11.1117 30.4961 11.0416 30.4783 10.9577C30.4605 10.8739 30.4259 10.793 30.4014 10.778C30.2664 10.6951 30.2212 9.88219 30.3112 9.15825C30.3304 9.00396 30.3384 8.84135 30.329 8.79692C30.3195 8.75245 30.3318 8.64768 30.3564 8.5641C30.3995 8.41698 30.4147 8.31906 30.4622 7.88007C30.4746 7.76635 30.5253 7.54407 30.575 7.3861C30.6248 7.22814 30.66 7.07327 30.6533 7.04191C30.6467 7.01054 30.6549 6.98611 30.6717 6.98758C30.7442 6.99392 30.8379 6.45175 30.7976 6.25855C30.7843 6.19477 30.7816 6.02374 30.7915 5.8785C30.8014 5.73326 30.8122 5.57196 30.8153 5.52005C30.8185 5.46814 30.8442 5.33757 30.8725 5.22991C30.9602 4.89607 30.8491 4.82509 30.7367 5.14315ZM17.0521 9.40135C17.0566 9.42262 16.997 9.43448 16.9198 9.42772C16.8362 9.42041 16.7858 9.40063 16.7954 9.3789C16.8043 9.3588 16.8639 9.34693 16.9277 9.35252C16.9916 9.35811 17.0475 9.38008 17.0521 9.40135ZM43.2252 18.067C43.2297 18.0882 43.2581 18.1078 43.2884 18.1104C43.3186 18.1131 43.3591 18.1422 43.3784 18.1752C43.3977 18.2082 43.3975 18.2338 43.3781 18.2321C43.3586 18.2304 43.3104 18.2006 43.2711 18.1658C43.2317 18.1311 43.1805 18.101 43.1572 18.099C43.134 18.0969 43.1112 18.0779 43.1067 18.0566C43.1022 18.0353 43.1252 18.0203 43.1577 18.0231C43.1903 18.026 43.2206 18.0457 43.2252 18.067ZM43.7133 18.4038C43.7526 18.477 43.6299 18.4544 43.5866 18.3804C43.561 18.3366 43.5706 18.3231 43.6182 18.3358C43.6558 18.3458 43.6986 18.3764 43.7133 18.4038ZM29.1478 18.4862C29.1872 18.521 29.2384 18.5511 29.2617 18.5531C29.285 18.5551 29.3077 18.5742 29.3122 18.5955C29.3167 18.6167 29.3476 18.6365 29.3809 18.6394C29.4803 18.6481 29.5029 18.7346 29.4675 18.9707C29.4491 19.0937 29.4326 19.2326 29.4309 19.2795C29.4293 19.3263 29.4122 19.3632 29.393 19.3616C29.3739 19.3599 29.3672 19.401 29.3782 19.4529C29.3893 19.5048 29.3828 19.5565 29.3639 19.5677C29.345 19.579 29.3378 19.6272 29.3479 19.6748C29.358 19.7225 29.3548 19.7767 29.3408 19.7953C29.3268 19.8139 29.2993 19.9388 29.2798 20.0727C29.1768 20.7786 29.0837 20.9891 29.0172 20.6664C29.0008 20.5868 28.99 20.4534 28.9933 20.3702C29.0064 20.0402 29.0085 19.6782 28.9985 19.4788C28.9766 19.0449 28.9765 18.8856 28.9979 18.7837C29.0101 18.726 29.0097 18.6306 28.9972 18.5718C28.9622 18.4069 29.0205 18.3738 29.1478 18.4862Z" fill="white"/>
</svg>
