<svg width="48" height="48" viewBox="0 0 48 48" fill="none" xmlns="http://www.w3.org/2000/svg">
<path fill-rule="evenodd" clip-rule="evenodd" d="M29.7662 7.49836C29.7738 7.50672 29.7799 7.51555 29.7836 7.52427C29.9224 7.853 29.9034 8.25309 29.873 8.43666C29.8705 8.45206 29.8559 8.4591 29.8355 8.45557L29.5072 8.39889C29.3883 8.37837 29.3767 8.49719 29.3633 8.63287C29.3564 8.70339 29.349 8.77849 29.3259 8.84093C29.2936 8.92801 29.0599 9.06862 28.7954 9.22777C28.5054 9.40229 28.1783 9.59907 28.0394 9.7719C27.8718 9.98026 27.9259 10.2028 28.0249 10.6098C28.0828 10.8482 28.1561 11.1499 28.2093 11.5491C28.3533 12.6299 28.7182 14.1252 28.9486 14.6262C29.0639 14.8771 29.1875 14.9894 29.3238 15.1132C29.4597 15.2367 29.6082 15.3717 29.7738 15.6669C29.9807 16.0357 30.0434 16.0633 30.1343 16.1033C30.1891 16.1274 30.2542 16.1561 30.3676 16.267C30.5006 16.3972 30.5738 16.4981 30.6495 16.6025C30.7452 16.7344 30.8449 16.8719 31.0744 17.0809C31.3284 17.3122 31.4948 17.4294 31.5804 17.4786C31.6113 17.4963 31.6412 17.526 31.6489 17.5526L31.9781 18.6935C31.9866 18.7354 32.023 18.8542 32.1007 18.9938C32.1605 19.1013 32.2639 19.1506 32.3384 19.1692C32.3709 19.1772 32.4079 19.2031 32.4213 19.2329C32.4536 19.3049 32.5069 19.4322 32.5715 19.6092C32.6802 19.9071 32.8197 20.3439 32.9782 20.9539C33.0986 21.4169 33.3565 22.1353 33.4885 22.4851C33.4996 22.5144 33.5347 22.5429 33.5661 22.5483L33.578 22.5504C33.6088 22.5557 33.6434 22.5835 33.6552 22.6125L33.7458 22.8342C33.7558 22.8588 33.7677 22.887 33.7809 22.9184C33.8798 23.1534 34.0556 23.5711 34.1323 24.0662C34.2193 24.6274 34.24 25.1529 34.1848 25.7138C34.142 26.1478 34.2161 26.3186 34.4395 26.8334C34.5048 26.9839 34.5829 27.1639 34.6745 27.3884C34.9879 28.1562 35.7372 29.5184 36.107 30.164C36.1259 30.1971 36.1107 30.2205 36.0783 30.2193C35.9712 30.215 35.9923 30.293 36.09 30.6529C36.1282 30.7934 36.1779 30.9766 36.2362 31.2144C36.3965 31.8686 36.4225 31.8787 36.6512 31.9677C36.7548 32.008 36.9 32.0643 37.1182 32.2041C37.4232 32.3997 37.5092 32.4975 37.5861 32.5849C37.6858 32.6982 37.7703 32.7942 38.2955 33.0629C39.2263 33.5392 39.4838 33.6322 39.8945 33.5938C40.2081 33.5646 40.1086 33.3721 39.9751 33.1139C39.9338 33.0341 39.8892 32.9479 39.8527 32.8584C39.7785 32.6766 39.5181 32.5354 39.2255 32.3765C38.9089 32.2048 38.5546 32.0127 38.3571 31.7262C38.0656 31.3035 37.7706 30.7982 37.6446 30.5722C37.6349 30.5548 37.6178 30.5384 37.5984 30.5279L37.5026 30.4764C37.479 30.4636 37.459 30.4422 37.4517 30.4216C37.2981 29.9896 36.9939 29.1111 36.9151 28.7948C36.8797 28.6526 36.8576 28.4962 36.8339 28.3289C36.79 28.0189 36.7408 27.6715 36.5919 27.3068L36.3035 26.6001C36.2972 26.5846 36.2838 26.5685 36.267 26.5564L36.21 26.5151C36.1932 26.5029 36.1798 26.487 36.1735 26.4714C36.0552 26.1779 35.8649 25.6408 35.8696 25.2522C35.8701 25.2072 35.8706 25.1633 35.8711 25.1199C35.8748 24.778 35.8782 24.4706 35.9055 23.9475C35.9284 23.507 35.9461 23.144 35.9535 22.9902C35.9543 22.9723 35.9694 22.9632 35.9918 22.9671L36.3705 23.0325C36.4139 23.04 36.4616 23.0907 36.4605 23.1255C36.4573 23.2222 36.4715 23.3925 36.5389 23.632C36.6539 24.0403 36.8029 24.5637 36.9649 24.9922C37.0892 25.321 37.1342 25.6904 37.1426 25.853C37.1432 25.8657 37.1369 25.8747 37.1255 25.8782L37.0268 25.9086C37.0205 25.9105 37.0156 25.9141 37.0146 25.9204C37.0068 25.9661 37.023 26.1599 37.1424 26.6615C37.2632 27.1688 37.5391 27.6026 37.7858 27.9907C37.8714 28.1254 37.9536 28.2547 38.0246 28.3795C38.2414 28.7611 38.4882 29.8585 38.5894 30.3834C38.5924 30.399 38.5856 30.4097 38.577 30.4185C38.5134 30.4839 38.5675 30.7927 38.6227 31.108C38.6626 31.3359 38.7032 31.5672 38.7004 31.7128C38.6958 31.9554 39.1858 32.1368 39.7969 32.3633C40.1 32.4756 40.4329 32.5989 40.75 32.7463C41.0968 32.9074 41.26 33.0305 41.4061 33.1405C41.6631 33.3344 41.8677 33.4887 42.9259 33.7409C44.2754 34.0627 44.0989 33.7201 43.961 33.4524C43.9293 33.3909 43.8996 33.3333 43.8911 33.2887C43.857 33.1109 43.3608 32.8735 42.7991 32.6049C42.6074 32.5132 42.4079 32.4178 42.2167 32.3199C41.6338 32.0215 41.1207 31.5288 40.9184 31.2998C40.9069 31.2868 40.9002 31.2728 40.8981 31.26C40.8852 31.1782 40.8251 30.9783 40.6607 30.6918C40.5243 30.454 40.396 30.4469 40.2957 30.4413C40.2313 30.4378 40.1784 30.4349 40.1425 30.3717C40.0507 30.2102 39.954 29.7201 39.931 29.3156C39.908 28.9111 39.8468 28.3179 39.7149 27.7732C39.6121 27.3487 39.361 26.8273 39.2393 26.6023C39.2339 26.5922 39.2221 26.5836 39.2115 26.5817C39.1903 26.5781 39.137 26.527 39.1317 26.5077C39.1128 26.4391 39.0661 26.3102 38.9824 26.1052C38.7996 25.7215 38.7985 25.6675 38.7943 25.4715C38.7924 25.377 38.7897 25.2495 38.7656 25.0361C38.7089 24.5335 38.5656 23.8284 38.4925 23.4995C38.4871 23.4753 38.5028 23.4614 38.5296 23.4655C38.9175 23.5249 39.5558 23.5379 39.8767 23.537C39.9033 23.5369 39.9125 23.5155 39.8981 23.4877C39.6542 23.0175 39.0727 21.9306 38.4971 20.96C38.1695 20.4077 37.9132 19.8467 37.6805 19.3375C37.3834 18.6873 37.1249 18.1217 36.8063 17.7671C36.3518 17.2614 36.2005 17.0637 36.1816 17.0281L36.139 16.9236L35.7926 16.0749C35.7217 15.9013 35.5876 15.6462 35.429 15.3447C35.1226 14.762 34.7249 14.0059 34.5172 13.33C34.2848 12.574 33.8275 11.6829 33.5797 11.2448C33.5553 11.2017 33.5874 11.1766 33.6356 11.198C33.7393 11.2441 33.7877 11.2531 33.8066 11.2479C33.8206 11.2439 33.804 11.2233 33.7855 11.2097C33.5376 11.0282 32.9665 10.4034 32.6468 10.0455C32.4517 9.82694 32.3865 9.81825 32.3325 9.81105C32.2944 9.80595 32.2618 9.80161 32.1928 9.72434C32.0829 9.60135 32.0585 9.49693 32.0605 9.44036C32.0612 9.42162 32.0815 9.41681 32.106 9.42473C32.4032 9.52052 32.4206 9.44153 32.4566 9.27747C32.466 9.23461 32.4767 9.18593 32.494 9.13305C32.55 8.96186 32.5237 8.88011 32.4961 8.79441C32.4756 8.73059 32.4543 8.66454 32.4659 8.55772C32.4739 8.48382 32.4842 8.42939 32.4932 8.38159C32.5148 8.26753 32.5292 8.19132 32.488 7.97895C32.4534 7.80028 32.4697 7.77969 32.4912 7.75251C32.5059 7.73384 32.5231 7.71206 32.528 7.63384C32.5338 7.54166 32.5185 7.50732 32.4807 7.42199C32.4396 7.32944 32.372 7.17692 32.2756 6.82563C32.1118 6.20258 31.2111 5.61018 30.524 5.22446C29.9542 4.90458 29.3301 4.79982 28.9616 5.25813C28.6697 5.62131 29.0449 6.40377 29.275 6.75982C29.2794 6.76665 29.2824 6.77319 29.2844 6.77975C29.3525 7.00782 29.6256 7.34453 29.7662 7.49836ZM30.1664 13.3979C30.3114 13.525 30.7385 13.8993 30.7927 14.1435C30.8189 14.2616 30.812 14.3212 30.8058 14.3741C30.7975 14.4455 30.7906 14.5046 30.869 14.6786C30.9347 14.8243 30.993 14.9153 31.0489 15.0025C31.1092 15.0965 31.1666 15.1862 31.2275 15.3352C31.2996 15.5119 31.3303 15.7494 31.3408 15.9123C31.3436 15.9556 31.2777 15.944 31.243 15.8952C31.1478 15.7615 31.0371 15.5967 31.0037 15.515C30.9878 15.4759 30.9733 15.4217 30.9562 15.3576C30.9106 15.1865 30.8463 14.945 30.684 14.7316C30.6371 14.67 30.5977 14.6209 30.5643 14.5794C30.4387 14.4231 30.3993 14.374 30.3767 14.1687C30.362 14.0344 30.3103 13.9619 30.2635 13.8962C30.2198 13.8349 30.1804 13.7796 30.1795 13.6856C30.1783 13.5652 30.1566 13.4625 30.1385 13.4021C30.1346 13.3889 30.1528 13.386 30.1664 13.3979Z" fill="white"/>
</svg>
