<svg width="48" height="48" viewBox="0 0 48 48" fill="none" xmlns="http://www.w3.org/2000/svg">
<path fill-rule="evenodd" clip-rule="evenodd" d="M24.142 11.1137C24.1753 11.1696 24.1612 11.2155 24.111 11.2156C22.8476 11.2181 20.6881 11.6341 21.4902 13.312C22.5176 15.4614 26.716 17.7983 27.6775 18.2461C27.7308 18.2709 27.7891 18.2982 27.8524 18.3279C28.932 18.8342 31.4556 20.0176 34.8585 20.7405C38.4609 21.5058 44.8556 21.6768 43.8487 18.7527C43.4742 17.6651 42.8426 16.9773 41.4979 16.027C41.4247 15.9752 41.3944 15.8889 41.4405 15.8638C41.9518 15.586 42.7312 14.9513 42.408 14.2505C41.9761 13.3142 41.5446 12.7764 40.4198 12.5698C39.708 12.4391 39.2407 12.3837 39.0062 12.3654C38.9406 12.3602 38.8553 12.285 38.8281 12.216C38.6903 11.8659 38.206 11.2091 37.0144 10.5487C35.2895 9.59278 31.3394 7.89738 26.8851 7.40018C22.4307 6.90297 22.5904 8.16159 22.7692 8.64097C22.9055 9.00663 23.7052 10.3811 24.142 11.1137ZM39.1579 14.5996C39.1612 14.6463 39.2081 14.7046 39.2642 14.7315C39.5849 14.8853 40.1481 15.1601 40.4395 15.3398C40.4751 15.3618 40.5114 15.3706 40.5354 15.361C40.9671 15.1889 41.7854 14.7459 41.8927 14.2245C42.0308 13.5526 40.512 12.961 39.8902 13.1779C39.3927 13.3515 39.386 13.3556 39.1287 13.5111C39.1088 13.5231 39.0874 13.536 39.0642 13.55C39.0477 13.5599 39.0412 13.5793 39.0456 13.6037C39.0967 13.8849 39.1412 14.364 39.1579 14.5996Z" fill="white"/>
</svg>
