<svg width="48" height="48" viewBox="0 0 48 48" fill="none" xmlns="http://www.w3.org/2000/svg">
<path d="M26.7588 10.7049C26.6717 10.0858 25.8578 8.06393 25.7497 7.77434C25.6947 7.62699 25.5534 7.38345 25.3893 7.11835C25.3744 7.14258 25.2999 7.15143 25.2422 7.17927C25.1701 7.21411 25.008 7.25583 24.9239 7.20692C24.8398 7.15802 24.7017 7.07421 24.7437 6.97659C24.7773 6.89849 24.9659 6.70238 25.056 6.6141L25.017 6.52513C24.9869 6.5193 24.9899 6.44664 24.9899 6.44664C25.062 6.3874 25.1971 6.46249 25.4404 6.46094C25.9359 6.41079 27.6385 6.25345 27.8938 6.14028C28.149 6.02714 28.3202 5.93833 28.5244 5.79899C28.7285 5.65964 29.0769 5.62155 29.4072 5.72645C29.6715 5.81037 30.0689 5.89847 30.245 5.93814C30.245 5.93814 30.1533 5.5541 30.1579 5.41663C30.1625 5.27917 30.4282 5.0297 30.3951 4.8361C30.3621 4.6425 30.2321 4.45272 29.9357 4.20967C29.7014 4.01765 29.3741 3.94589 29.242 3.95275C29.1099 3.95962 29.0048 4.14265 28.9417 4.20364C28.8787 4.26463 28.8186 4.18784 28.8306 4.14949C28.8426 4.11113 28.9987 3.85663 29.26 3.85859C29.5213 3.86054 29.8216 4.0003 30.1038 4.25862C30.3861 4.51695 30.4792 4.76291 30.5032 4.88152C30.5273 5.00013 30.3291 5.279 30.269 5.42195C30.2201 5.53834 30.3071 5.81726 30.3591 5.95217C30.3822 5.95393 30.4648 5.96621 30.6114 6.0012C30.7946 6.04494 31.0798 6.14109 31.3141 6.25987C31.5483 6.37864 31.9657 6.71206 32.2991 7.04541C32.6324 7.37878 35.0438 8.40089 35.3681 8.58601C35.6924 8.77114 36.3471 9.10997 36.4732 9.1589C36.5741 9.19805 36.5993 9.27294 36.5993 9.3055C36.6614 9.37181 36.8227 9.55401 36.9717 9.75224C37.1207 9.95045 37.0598 10.0081 37.0107 10.0121L36.6384 9.78509C36.6424 9.8537 36.6828 10.0851 36.8126 10.4619C36.9747 10.9329 37.0619 11.8206 37.3592 12.855C37.6565 13.8894 37.7526 14.144 38.3202 14.8403C38.7742 15.3973 39.3362 15.7974 39.5604 15.9278C39.5524 16.0836 39.5418 16.5182 39.5635 17.0107C39.5905 17.6264 39.4885 18.5506 39.6086 18.8994C39.7287 19.2483 39.9329 19.817 40.002 20.042C40.0711 20.267 40.0591 20.696 40.0681 20.8687C40.0771 21.0413 40.1432 21.0867 40.2513 21.4007C40.3594 21.7147 40.3414 21.7112 40.5066 22.1421C40.6717 22.573 39.9721 22.6893 39.6477 22.8459C39.3234 23.0026 37.9571 23.4532 37.3776 23.5033C36.798 23.5534 36.6719 23.6266 36.3476 23.6856C36.0232 23.7446 35.9001 23.6312 35.78 23.4532C35.6839 23.3108 35.6339 23.1997 35.6208 23.1619C35.4397 23.1158 34.6881 22.8504 33.1314 22.1571C31.1855 21.2906 29.8101 20.1524 29.69 19.8035C29.5698 19.4547 29.6839 19.4199 29.5068 19.125C29.3806 18.9052 29.4377 18.8756 29.4227 18.7343C29.4076 18.593 29.2064 18.3017 29.0653 17.9894C28.9241 17.6771 28.9422 17.705 28.7349 17.3229C28.5277 16.9409 28.3986 16.8344 28.3145 16.5169C28.2304 16.1995 27.9962 15.983 27.7319 15.5573C27.4676 15.1316 26.1283 13.2924 26.0021 13.1458C25.876 12.9992 26.0231 13.0116 26.1733 12.9105C26.3234 12.8095 26.7769 12.2466 26.8639 11.9868C26.951 11.727 26.8459 11.3241 26.7588 10.7049Z" fill="white"/>
</svg>
