<svg width="48" height="49" viewBox="0 0 48 49" fill="none" xmlns="http://www.w3.org/2000/svg">
<path fill-rule="evenodd" clip-rule="evenodd" d="M25.1561 9.36138C25.1782 9.35829 25.1916 9.34558 25.1945 9.32481C25.3274 8.34939 26.0471 6.41293 27.915 6.22226C28.2706 6.14733 29.186 6.13996 29.5016 6.20525C29.5528 6.21584 29.6075 6.21064 29.6314 6.18383C29.7033 6.1035 29.8569 6.02678 30.1034 6.13512C30.3297 6.23459 30.4545 6.36913 30.5125 6.46443C30.5409 6.51101 30.5858 6.55968 30.6359 6.58102C31.0247 6.74681 31.6839 7.02336 31.7715 7.04199C31.8036 7.0488 31.8411 7.047 31.8859 7.04489C32.006 7.03918 32.1771 7.03107 32.4268 7.18127C32.6769 7.3317 32.8843 7.58091 32.9773 7.7154C32.993 7.73817 33.014 7.75966 33.0381 7.7759L33.7434 8.25189C33.7563 8.26056 33.7694 8.26739 33.7825 8.27249C33.9331 8.33115 34.2464 8.4837 34.4411 8.68532C34.6673 8.91956 34.8633 9.20003 34.9211 9.36342C34.9335 9.39845 34.9591 9.43656 34.9956 9.46457L35.3354 9.72508C35.3441 9.73177 35.3531 9.73759 35.3623 9.74272C35.5787 9.86327 36.0366 10.1777 36.2442 10.5349C36.437 10.8667 36.5469 11.0455 36.5874 11.1086C36.594 11.119 36.5992 11.1293 36.6044 11.1397C36.6539 11.2364 36.9145 11.5899 37.6477 12.3758C38.6228 13.421 40.4297 16.4521 41.2157 19.0472C41.9965 21.6254 41.7846 23.438 40.4541 24.4865C40.4376 24.4995 40.4344 24.5238 40.4398 24.5509C40.4803 24.7542 40.373 25.1235 40.1081 25.0672C39.8897 25.0208 39.8295 25.0043 39.7828 25.0088C39.756 25.0114 39.7336 25.0208 39.6884 25.0355C39.563 25.0801 39.4201 25.1363 39.2791 25.192C39.0052 25.2999 38.738 25.4052 38.6182 25.4174C38.5903 25.4202 38.5788 25.4398 38.5647 25.4639C38.529 25.5246 38.4767 25.6137 38.1027 25.5342C37.773 25.4641 37.5456 25.289 37.452 25.2053C37.4211 25.1776 37.3845 25.1551 37.3517 25.1483C37.2624 25.1297 37.1764 25.1127 37.092 25.0961C36.4132 24.9623 35.8361 24.8486 34.4272 24.06C32.8197 23.1602 30.5217 21.2773 29.3589 19.5555C29.344 19.5334 29.3233 19.5132 29.3002 19.4971C29.0133 19.2977 28.5209 18.8575 28.5422 18.4751C28.5435 18.4519 28.5338 18.4236 28.5132 18.3961L28.0489 17.7793C28.0238 17.7458 27.9864 17.7188 27.9502 17.7058C27.7072 17.6189 27.2698 17.3984 26.932 17.033C26.8585 16.9535 26.7191 16.9148 26.6701 16.9522C26.5386 17.0525 26.237 17.0622 25.6387 16.6884C24.8347 16.186 24.2406 15.7015 24.0218 15.5026C24.0079 15.4899 23.9926 15.4789 23.9768 15.4705L21.9461 14.3944C21.9173 14.3791 21.8909 14.356 21.8724 14.3295C21.2311 13.4071 19.9175 11.4858 19.5714 10.8569C19.4584 10.6551 19.52 10.1927 20.6714 9.95756C21.7036 9.74674 22.4525 9.69609 22.9037 9.66558C23.0816 9.65355 23.2132 9.64464 23.2977 9.63029C23.5317 9.59052 24.6124 9.4375 25.1561 9.36138ZM25.3611 11.5752C25.3478 11.5208 25.2851 11.4625 25.2275 11.4529C24.9377 11.4048 24.1442 11.3037 23.4673 11.485C22.9751 11.6167 22.7692 11.7552 22.7009 11.8455C22.6768 11.8773 22.7232 11.935 22.7826 11.9563C23.1708 12.0957 23.877 12.3197 24.2963 12.3467C24.7905 12.3786 25.0753 12.491 25.1479 12.523C25.1603 12.5285 25.1725 12.5329 25.1842 12.5354L25.531 12.6092C25.5805 12.6197 25.6092 12.5931 25.598 12.5472L25.3611 11.5752Z" fill="white"/>
</svg>
