<svg width="48" height="48" viewBox="0 0 48 48" fill="none" xmlns="http://www.w3.org/2000/svg">
<g clip-path="url(#clip0_2588_945)">
<path fill-rule="evenodd" clip-rule="evenodd" d="M43.3828 12.0414C43.3906 11.9191 43.36 11.6275 43.1754 11.439C43.1067 11.3688 43.0709 11.3212 43.0423 11.2834C42.975 11.194 42.9487 11.1591 42.6292 11.0112C42.4803 10.9423 42.332 10.8648 42.1853 10.7881C41.8837 10.6306 41.5885 10.4763 41.3072 10.4062C41.0685 10.3467 40.9346 10.403 40.8198 10.4514C40.7334 10.4878 40.6578 10.5197 40.5563 10.4944C40.32 10.4355 39.5873 10.5281 39.2664 10.6101C39.1028 10.6519 38.9976 10.7378 38.8728 10.8397C38.7528 10.9376 38.6148 11.0502 38.3895 11.1528C38.1132 11.2836 37.5014 11.5857 37.2643 11.7469C37.0468 11.8948 36.7754 12.1083 36.6388 12.2193C36.6227 12.2324 36.5854 12.2152 36.5663 12.1856C35.8659 11.1009 33.9744 8.75259 31.6635 7.53322C31.6503 7.52622 31.638 7.51535 31.6297 7.50277C30.9955 6.54501 29.1917 4.59285 26.9357 4.29256C24.0964 3.91465 24.3941 6.14075 24.6238 6.95931C24.8057 7.60738 25.2222 8.749 25.4137 9.2548C25.4176 9.26511 25.4175 9.27366 25.413 9.27946C25.2864 9.44215 24.7558 9.65309 23.575 9.2569C23.4996 9.23165 23.4214 9.20519 23.3407 9.17789C21.8116 8.66043 19.3891 7.84065 18.5084 9.01952C17.5812 10.2606 18.6048 13.4604 21.8279 15.5586C25.0511 17.6568 28.7823 17.9017 29.4051 16.3816C30.0266 14.8646 30.0891 12.9299 28.6335 10.273C28.6279 10.2627 28.6256 10.253 28.6276 10.2455C28.7792 9.66596 29.2355 8.58779 29.8951 8.71179C29.921 8.71664 29.9481 8.74496 29.9505 8.76849C30.0612 9.88973 30.5914 12.3329 31.8755 13.4946C33.4749 14.9415 35.1012 15.8799 36.6691 15.4202C36.6974 15.4119 36.7478 15.4539 36.7474 15.4859C36.7365 16.3297 37.0276 18.1657 38.3055 19.4537C38.8634 20.0161 39.3132 20.446 39.6711 20.7881C40.3761 21.4619 40.724 21.7944 40.8382 22.126C40.8587 22.1855 40.88 22.2444 40.9008 22.302C41.0551 22.7279 41.1843 23.0846 40.7725 23.1367C40.3509 23.1901 39.6813 22.8279 39.0764 22.5006C38.9172 22.4145 38.7625 22.3308 38.6179 22.2577L38.6053 22.2514C37.9089 21.8994 36.6538 21.265 35.636 21.7681C34.9485 22.108 34.7033 22.4748 34.6462 22.6849C34.6382 22.7143 34.6848 22.7514 34.7091 22.7358C35.201 22.4188 36.2748 21.9274 37.2033 22.1589C37.8566 22.3218 38.2892 22.6173 38.7551 22.9356C39.163 23.2142 39.5964 23.5103 40.2258 23.7502C41.5744 24.2641 42.1311 24.0221 42.1201 23.3848C42.109 22.7474 41.668 21.8186 40.5222 20.7526C39.0685 19.4002 38.0474 18.0287 37.9407 17.1137C37.8789 16.584 37.9476 16.0528 38.0051 15.6079C38.0463 15.2895 38.0817 15.0153 38.0596 14.8175C38.0588 14.8111 38.0599 14.8058 38.0629 14.8018C38.3653 14.4056 39.0775 13.5752 39.5452 13.3762C40.0078 13.1793 40.3732 12.9992 40.5049 12.9303C40.5091 12.9281 40.5141 12.9274 40.5203 12.9282C41.1095 13.0063 42.3561 13.0932 42.7023 12.8245C42.8306 12.7248 42.94 12.6632 43.0312 12.6118C43.2492 12.4889 43.3632 12.4247 43.3828 12.0414ZM32.6799 9.84224C32.6638 9.83629 32.6527 9.84103 32.6503 9.85283C32.5419 10.3928 32.4956 11.622 33.1553 12.3728C33.9896 13.3225 35.0509 13.718 35.4632 13.3118C35.619 13.1583 35.7211 13.0646 35.7856 13.0097C35.8089 12.99 35.7953 12.8148 35.764 12.7716C35.389 12.2555 34.6551 11.3353 33.9525 10.743C33.2181 10.1239 32.8159 9.89216 32.6799 9.84224ZM26.6105 11.6499C26.6316 11.632 26.6901 11.6653 26.7008 11.7031C26.9608 12.6227 27.1078 14.3408 25.8093 14.6869C24.1154 15.1383 21.3199 13.3673 20.9078 11.8993C20.4958 10.4313 22.3146 10.9394 23.3504 11.3432C24.3346 11.727 26.1792 12.013 26.6105 11.6499Z" fill="white"/>
</g>
<defs>
<clipPath id="clip0_2588_945">
<rect width="48" height="48" fill="white"/>
</clipPath>
</defs>
</svg>
