<svg width="48" height="48" viewBox="0 0 48 48" fill="none" xmlns="http://www.w3.org/2000/svg">
<path fill-rule="evenodd" clip-rule="evenodd" d="M29.6294 9.81248C29.5769 9.82739 29.4692 9.84284 29.4068 9.80681C28.5866 9.33308 26.5516 8.41032 23.83 7.88678L23.7777 7.87672C20.1745 7.18355 17.6597 6.69976 18.1603 8.10428C18.6634 9.51559 21.9707 13.6 23.4717 13.7685C24.5882 13.8938 25.063 13.7216 25.1878 13.5992C24.8162 14.0526 24.2633 15.2206 24.8681 16.4914C25.5445 17.9126 26.8483 18.3682 27.6056 18.6328C27.7119 18.6699 27.8073 18.7032 27.8888 18.735C28.5496 18.9924 30.9306 19.4333 32.1375 19.0356C32.1434 19.0337 32.1486 19.0311 32.1533 19.0277C32.5954 18.7065 32.3612 17.4971 32.0947 16.7865C32.3616 17.3695 32.8082 18.1704 33.1717 18.2557C33.1807 18.2578 33.1894 18.2584 33.1974 18.2575C33.521 18.2203 33.4558 17.446 33.3475 16.8741C33.5412 17.5796 34.1002 18.8117 34.7765 19.2112C34.7837 19.2154 34.7908 19.2188 34.7983 19.2217C36.3257 19.8106 38.5243 19.6899 39.0446 19.5151C39.1088 19.4935 39.1865 19.4723 39.273 19.4486C39.8895 19.2801 40.951 18.9899 40.7139 17.5994C40.5018 16.3562 39.1466 15.0547 38.4562 14.527C38.6682 14.673 39.2795 14.9211 40.3647 14.9498C41.8234 14.9882 42.5686 11.1872 42.1566 9.78226C41.7466 8.38408 39.4365 8.53048 36.1267 8.74024L36.0786 8.74328C33.5786 8.90169 32.0627 9.57613 31.5193 9.95452C31.478 9.9833 31.355 9.95171 31.2901 9.9286V9.9286C31.244 9.91219 31.2008 9.86978 31.1763 9.82844C31.1521 9.78775 31.1171 9.74886 31.0861 9.71932C31.0605 9.69503 31.0408 9.66603 31.0325 9.63737C30.9894 9.48777 30.9052 9.3951 30.8182 9.34031C30.7344 9.28756 30.6439 9.17724 30.6748 9.1169C30.7566 8.95776 30.8784 8.73372 31.0053 8.53672C31.117 8.36333 31.4947 7.96704 31.8515 7.59259C32.2035 7.2233 32.5352 6.87524 32.5716 6.78317C32.6094 6.68732 32.7371 6.57513 32.867 6.46093C32.9885 6.35422 33.1119 6.24575 33.1659 6.14726C33.2777 5.94336 33.0467 6.05424 32.807 6.20685C32.6299 6.31968 32.5427 6.48508 32.4451 6.67038C32.4107 6.73572 32.375 6.80353 32.3335 6.87239C32.2345 7.03704 31.9335 7.35212 31.6184 7.68202C31.428 7.88132 31.2325 8.08603 31.0732 8.26624C30.7714 8.60768 30.5837 8.99527 30.5075 9.19751C30.4941 9.23308 30.4462 9.24165 30.3986 9.21594V9.21594C30.3683 9.19955 30.3441 9.17213 30.3363 9.14385C30.3295 9.11937 30.3217 9.08972 30.3129 9.05645C30.2682 8.88645 30.1985 8.62222 30.1174 8.47463V8.47463C30.0813 8.40893 29.8839 8.39512 29.8898 8.45871V8.45871C29.903 8.60155 30.0059 8.86811 30.072 9.0396C30.085 9.07316 30.0965 9.10308 30.1057 9.12772C30.1163 9.15621 30.1093 9.18144 30.0885 9.19425V9.19425C30.0558 9.21436 29.9999 9.19853 29.9623 9.15939C29.748 8.93683 29.2939 8.50436 28.751 8.10385C28.4644 7.89246 28.1237 7.65026 27.7919 7.41445C27.2428 7.02412 26.7184 6.65131 26.5052 6.46484C26.4161 6.38685 26.3336 6.31076 26.2541 6.23746C26.0288 6.02958 25.8276 5.84401 25.5672 5.70059C25.2149 5.50658 24.8994 5.3575 25.1519 5.58687C25.2739 5.69767 25.4752 5.82884 25.6733 5.95789C25.8852 6.096 26.0935 6.23169 26.1968 6.33741C26.2961 6.43896 26.8746 6.85067 27.4885 7.28749C28.1109 7.73042 28.7697 8.19919 29.0019 8.39662C29.2656 8.62094 29.5422 8.87285 29.7335 9.05108C29.8061 9.11866 29.7847 9.22114 29.7321 9.26435C29.6774 9.30923 29.6509 9.39417 29.7052 9.5446C29.7156 9.57338 29.7143 9.60088 29.7037 9.62264C29.6909 9.6491 29.6801 9.68479 29.6819 9.72392C29.6837 9.76367 29.6667 9.80189 29.6294 9.81248V9.81248Z" fill="white"/>
</svg>
