<svg width="48" height="48" viewBox="0 0 48 48" fill="none" xmlns="http://www.w3.org/2000/svg">
<g clip-path="url(#clip0_2588_925)">
<path d="M36.9652 11.3505C36.7122 11.6468 36.6465 12.5157 36.6453 12.9131C36.6459 12.8753 36.7289 12.7687 37.0557 12.6446C37.4643 12.4894 37.3728 12.0188 37.374 11.593C37.3754 11.1672 38.891 10.1564 39.4175 9.70956C39.9441 9.26276 39.8387 9.38618 39.6825 8.93261C39.5263 8.47903 39.5893 8.49017 39.8206 8.38892C40.0521 8.28769 40.4612 8.44507 40.9352 8.0174C41.4091 7.58973 41.4094 7.50457 42.2702 7.68474C43.1309 7.86492 43.4235 8.37098 43.0456 8.30435C42.6676 8.2377 41.9821 9.16767 41.4878 9.36454C40.9935 9.56141 40.5286 10.4451 40.264 11.1369C39.9993 11.8287 39.4696 13.2974 38.9522 14.2003C38.4348 15.1031 38.2599 17.3445 38.0277 17.7012C37.7956 18.0579 37.7321 18.2171 37.2456 19.2958C36.9673 19.9131 36.5764 20.2887 36.2828 20.4846C36.2177 20.528 36.3175 20.6943 36.4221 20.7128L39.1096 21.1867C40.0544 21.3533 39.6876 21.0613 40.1285 21.1391C40.5695 21.2168 40.7897 21.3409 41.7236 21.6476C42.6575 21.9543 42.5205 22.0721 42.2054 22.1018C41.8901 22.1314 41.7639 22.1943 41.2702 22.2209C40.7764 22.2474 40.5765 22.3542 39.9466 22.2431C39.3168 22.1321 38.8332 22.274 38.0245 22.245C37.2158 22.216 37.0268 22.1827 36.0718 21.9007C35.3286 21.6812 34.3789 21.5615 33.9637 21.5259C33.9419 21.524 33.9245 21.5298 33.9136 21.5422C33.8025 21.6679 33.531 21.9394 33.2035 22.1618C32.7719 22.4549 31.9315 22.5056 30.9664 22.1082C30.0012 21.7107 30.557 22.036 29.3612 21.4843C28.4685 21.0724 27.7996 20.4328 27.5272 20.1085C27.4949 20.0701 27.4484 20.0419 27.4072 20.0356C27.2468 20.0114 26.8405 19.9236 26.6254 19.6386C26.3534 19.2782 26.2597 19.0061 25.7784 18.3815C25.2971 17.757 24.637 17.2146 23.6617 16.7018C22.6864 16.189 21.3134 15.2084 20.9678 14.8919C20.6221 14.5753 20.6218 14.6604 19.9716 14.3186C19.3214 13.9767 17.8126 12.7734 17.4669 12.4568C17.1212 12.1403 15.9057 11.1875 15.5702 10.9863C15.2347 10.7851 15.0035 10.8012 14.7211 10.4106C14.4387 10.02 14.533 10.1218 13.9778 9.62622C13.4226 9.13069 13.4861 8.97146 12.9728 8.51173C12.4595 8.05201 12.6797 8.17602 12.8166 8.05814C12.9535 7.94026 14.0324 8.92577 14.6615 9.29232C15.2906 9.65887 15.5002 9.83783 15.8872 10.3605C16.2743 10.8832 16.5788 10.9085 17.7639 11.5151C18.949 12.1217 19.955 12.8955 20.4576 13.4102C20.9602 13.9249 21.9886 14.2482 23.3303 15.138C24.29 15.7744 25.02 16.0874 25.349 16.1927C25.4049 16.2107 25.4393 16.1812 25.4362 16.1339C25.4283 16.0154 25.4488 15.8398 25.5659 15.7026C25.7556 15.4805 26.4691 15.7483 27.4871 16.0414C28.2143 16.2508 28.537 16.6969 28.6347 16.9582C28.653 17.0074 28.7013 17.0583 28.7546 17.0775L29.6484 17.3996C29.7011 17.4186 29.742 17.4008 29.7451 17.3591C29.7545 17.2329 29.7826 16.9559 29.8491 16.4579C29.9566 15.6532 32.8952 13.0186 33.5789 12.6848C34.2627 12.3509 34.6843 11.8572 34.6661 10.9451C34.6479 10.0331 35.2382 9.34186 36.0593 8.71979C36.8805 8.09772 37.6176 7.48923 37.692 7.18992C37.7665 6.89062 37.8185 7.04182 38.2293 6.6882C38.64 6.33458 38.7158 5.60952 39.1572 5.51694C39.5986 5.42436 39.6504 5.66072 40.133 5.85942C40.6155 6.05811 40.5627 6.1624 41.0138 6.35555C41.4648 6.5487 40.9079 6.6493 40.8334 6.9486C40.759 7.2479 39.9388 7.52932 39.5812 7.69348C39.2236 7.85765 39.38 8.22605 38.9594 8.37911C38.5472 8.5291 38.1846 8.98782 37.7435 9.54564L37.7163 9.58004C37.2629 10.1533 37.2814 10.9803 36.9652 11.3505Z" fill="white"/>
</g>
<defs>
<clipPath id="clip0_2588_925">
<rect width="48" height="48" fill="white"/>
</clipPath>
</defs>
</svg>
