<svg width="48" height="48" viewBox="0 0 48 48" fill="none" xmlns="http://www.w3.org/2000/svg">
<path fill-rule="evenodd" clip-rule="evenodd" d="M33.1756 5.35423C35.0523 6.61151 36.906 8.42286 38.1008 10.1672C38.4688 10.7046 39.0612 11.4441 39.4174 11.8107C41.2168 13.6632 42.2034 17.6056 41.6375 20.6818C41.4883 21.4926 38.8992 23.1896 37.7558 23.2258C37.2162 23.243 36.1606 23.3181 35.41 23.3924C34.3093 23.5014 33.6783 23.4103 32.1477 22.9206C31.1041 22.5868 30.0101 22.2647 29.7168 22.205C28.7602 22.0101 27.1873 20.9804 26.9956 20.4237C26.8542 20.013 26.7108 19.9143 26.3155 19.9553C25.9155 19.997 25.8024 19.9162 25.7527 19.5537C25.7112 19.2489 25.8758 19.1729 26.2539 19.3225C27.6907 19.89 30.4373 20.2873 30.7691 19.9757C30.9565 19.7995 31.2196 19.6755 31.3539 19.7006C31.6699 19.7592 34.3492 16.6595 34.8331 15.6754C35.3898 14.5441 35.5306 11.6288 35.5045 11.3349C35.5045 11.3346 35.5045 11.3348 35.5045 11.3345C35.5037 11.3251 35.3586 9.476 35.1298 9.05854C34.9263 8.68725 34.7083 8.23844 34.6455 8.06095C34.5824 7.88365 34.3503 7.69999 34.1296 7.65307C33.9089 7.60615 33.6697 7.39764 33.598 7.18938C33.5263 6.9814 33.0849 6.34743 32.617 5.78087C31.3277 4.21951 31.4 4.1645 33.1756 5.35423Z" fill="white"/>
</svg>
