<svg width="48" height="49" viewBox="0 0 48 49" fill="none" xmlns="http://www.w3.org/2000/svg">
<g clip-path="url(#clip0_2588_947)">
<path fill-rule="evenodd" clip-rule="evenodd" d="M22.5859 6.38577C22.0321 7.3171 22.0588 8.22833 22.6572 8.81965C22.7978 8.95865 22.8391 9.03989 22.7892 9.07948C22.7492 9.11117 22.5476 9.26558 22.341 9.42258C18.637 12.2387 22.9888 15.3305 26.9683 12.71C27.1528 12.5886 27.3157 12.4826 27.3304 12.4746C27.3451 12.4665 27.4057 12.5431 27.465 12.6449C27.5666 12.8189 27.587 12.8297 27.8108 12.8284C28.0717 12.8268 28.0306 12.7673 29.1727 14.8035C29.445 15.2889 29.7252 15.7811 30.9628 17.9475C31.4826 18.8575 31.5634 19.0587 31.4627 19.1927C31.3563 19.3342 31.3919 19.5047 31.5547 19.6343C31.6336 19.6971 31.703 19.824 31.7087 19.9162C31.7215 20.123 31.8326 20.2288 32.0983 20.2873C32.276 20.3264 32.3256 20.3788 32.4798 20.6904C32.6762 21.0872 33.4046 22.443 34.2625 24.0087C34.7947 24.9799 34.82 25.0452 34.7508 25.2686C34.5106 26.043 35.6466 26.4702 36.6258 25.9738C37.5993 25.4802 37.6834 24.4334 36.7651 24.2395C36.6159 24.208 36.6556 24.1891 37.7783 23.757C44.608 21.1286 43.979 21.4123 43.8083 21.0371C43.3654 20.0639 43.3994 20.0791 42.4677 20.4366C41.7861 20.6982 41.5612 20.7443 41.6025 20.614C41.6109 20.5878 41.9528 20.4327 42.3625 20.2694C42.7722 20.106 43.1493 19.9481 43.2005 19.9184C43.299 19.8613 43.1243 19.3289 42.9317 19.0994C42.8803 19.0381 42.7908 18.8792 42.7328 18.7462C42.6273 18.5043 42.6273 18.5043 42.4046 18.5474C42.1819 18.5904 42.1819 18.5904 42.3425 18.5224C42.6228 18.4038 42.6208 18.3956 42.0607 17.3336C41.8688 16.9698 42.083 16.9218 39.5419 17.8984C36.9577 18.8917 37.1487 18.7862 37.2567 19.1602C37.3624 19.5256 37.4938 19.4373 36.0246 19.9881C34.6721 20.4951 34.6731 20.4949 34.5887 20.1807C34.5844 20.1647 34.4919 19.9937 34.3832 19.8008C34.2285 19.5263 34.2035 19.4262 34.2679 19.3402C34.4002 19.1638 34.3686 18.9168 34.1985 18.7975C34.1142 18.7384 34.058 18.652 34.0735 18.6056C34.1256 18.4505 33.9411 18.2442 33.7058 18.1945C33.455 18.1415 33.5651 18.3278 31.2126 13.9746C31.0402 13.6555 30.8442 13.2953 30.7769 13.1741C30.1953 12.1255 30.1172 11.9144 30.2535 11.7597C30.3566 11.6427 30.3736 11.5808 30.3326 11.4715C30.3039 11.3949 30.2908 11.3294 30.3036 11.3259C30.3164 11.3224 30.5135 11.2766 30.7416 11.224C33.1484 10.6691 34.7146 8.76979 34.0458 7.21702C33.6076 6.19936 32.0082 5.76959 30.2542 6.19817C29.877 6.29038 29.8867 6.29764 29.8687 5.91091C29.741 3.17449 24.2839 3.53028 22.5859 6.38577ZM25.2699 6.06315C26.8636 5.31234 28.4913 6.18517 27.386 7.19783C26.9807 7.56923 26.7326 7.67127 25.9384 7.79331C24.2659 8.05029 23.7709 6.76933 25.2699 6.06315ZM23.6096 10.4376C24.4824 9.82003 25.9678 9.79805 26.4389 10.3958C27.182 11.3384 24.2559 12.5393 23.34 11.6676C22.9173 11.2653 23.0049 10.8654 23.6096 10.4376ZM29.5868 8.1837C30.4117 7.66105 31.6013 7.61181 32.0361 8.08234C32.3567 8.42933 31.7899 9.22995 31.0546 9.46868C29.226 10.0625 28.1324 9.10519 29.5868 8.1837ZM37.9037 20.645C38.1597 20.6128 38.2127 20.6404 38.2701 20.8364C38.2993 20.9361 38.4888 21.1749 38.6911 21.367C39.1482 21.8012 39.1398 21.7725 38.8615 21.9481C38.6025 22.1115 37.8733 22.2975 37.7146 22.2406C37.6575 22.2201 37.6105 22.0256 37.5914 21.7314C37.5744 21.4695 37.534 21.1581 37.5017 21.0393C37.4361 20.7982 37.5463 20.69 37.9037 20.645Z" fill="white"/>
</g>
<defs>
<clipPath id="clip0_2588_947">
<rect width="48" height="48" fill="white" transform="translate(0 0.0585938)"/>
</clipPath>
</defs>
</svg>
