<svg width="48" height="49" viewBox="0 0 48 49" fill="none" xmlns="http://www.w3.org/2000/svg">
<path d="M37.7755 12.6671C36.4685 11.9762 34.1587 11.6446 33.0393 11.5525C32.9737 11.5471 32.8942 11.4725 32.8836 11.4084C32.829 11.0784 32.6671 10.4614 32.3188 9.84897C31.8149 8.96284 30.179 7.91168 29.3786 7.47945C28.5779 7.04717 27.6394 6.91313 27.0346 7.33717C26.4313 7.75987 26.9766 8.85825 27.2088 9.3261L27.2108 9.32997C27.4419 9.79572 27.5703 9.96284 27.7247 10.5758C27.8357 11.016 28.1767 11.5525 28.3823 11.8342C28.4182 11.8833 28.4217 11.9333 28.3859 11.9467C27.9215 12.1206 27.3362 11.7414 26.4692 11.739C25.564 11.7365 25.8239 12.7903 26.4857 12.9842C26.8781 13.0993 27.4746 13.2886 27.9136 13.4301C28.0171 13.4635 28.1266 13.6547 28.0715 13.7C27.9588 13.7927 27.8083 13.9376 27.6208 14.156C27.1396 14.7161 26.9995 15.9055 27.4563 16.923C27.8157 17.724 29.1417 18.9514 29.7902 19.4911C29.8108 19.5083 29.8281 19.5285 29.8364 19.5493C29.8647 19.62 29.8891 19.7427 29.8281 19.8455C29.7383 19.9969 28.659 19.3347 27.76 19.196C26.861 19.0572 29.1611 20.793 30.0541 21.2228C30.7535 21.5597 31.7474 21.3844 32.1837 21.2473C32.2012 21.2417 32.2248 21.2449 32.2497 21.2557C35.5763 22.7028 37.2777 22.6109 39.5134 22.9247C41.758 23.2397 41.9619 22.3722 43.1202 20.5668C44.2786 18.7615 42.3884 16.1914 41.7509 15.4345C41.1133 14.6777 39.4792 13.5676 37.7755 12.6671Z" fill="white"/>
<path d="M20.4932 11.9306L21.2185 12.0981C21.6734 12.2031 20.6644 11.0148 20.3199 10.7046C19.9756 10.3946 19.5002 10.2298 19.3404 10.1929C19.1806 10.156 18.5894 9.91828 18.2092 9.93179C17.9952 9.93957 18.282 10.1019 18.589 10.2435C18.6874 10.2889 18.7338 10.4018 18.6488 10.3993C18.5941 10.3977 18.5351 10.3915 18.476 10.3778C18.1632 10.3056 18.3415 10.6395 18.5964 10.7274C18.7787 10.7903 19.5951 10.9656 19.8942 11.0785C20.1934 11.1915 20.3247 11.4415 20.251 11.4244C20.1771 11.4074 19.9143 11.4655 19.4971 11.5029C19.0801 11.5404 19.2024 11.7973 19.5016 11.9103C19.8008 12.0233 20.2104 11.8654 20.4932 11.9306Z" fill="white"/>
</svg>
