<svg width="48" height="49" viewBox="0 0 48 49" fill="none" xmlns="http://www.w3.org/2000/svg">
<path d="M25.6275 13.8841C25.5519 14.188 25.6599 14.4145 26.0597 14.6158C26.4595 14.8171 26.3514 14.6778 26.8052 14.4252C27.259 14.1726 27.0213 14.0931 27.259 13.9982C27.4967 13.9034 27.648 13.5576 28.0046 13.5461C28.3611 13.5345 28.5448 13.2829 28.7933 13.1321C28.9442 13.0406 29.0922 13.0747 29.1863 13.1243C29.2305 13.1476 29.2537 13.1944 29.2525 13.2296C29.2414 13.563 29.4333 14.7461 29.6252 15.548C29.8304 16.4058 29.8088 17.6516 29.7871 18.1996C29.7655 18.7474 29.2468 19.2479 28.9875 20.0651C28.7931 20.6776 28.7037 21.2273 28.6784 21.4666C28.6755 21.4939 28.6913 21.5296 28.7229 21.5583C29.0228 21.8307 29.6335 22.0567 29.985 22.1607C30.038 22.1763 30.0911 22.226 30.1135 22.2768C30.2163 22.5091 30.3536 22.5547 30.6729 22.7788C31.0295 23.029 30.7594 23.0298 30.8026 23.417C30.8458 23.8042 32.0342 24.3767 32.9094 24.6499C33.6095 24.8685 33.6621 24.5676 33.6009 24.3898C33.8818 25.0311 33.925 24.9821 34.5733 25.2072C35.2216 25.4322 35.8914 25.4583 37.5229 25.7469C39.1544 26.0355 38.6791 25.7891 39.511 25.8496C40.343 25.9101 40.5158 25.7143 40.9912 25.6989C41.3488 25.6875 41.5052 25.5749 41.5466 25.5102C41.5513 25.5028 41.5527 25.493 41.551 25.4818C41.5139 25.2466 41.1468 24.9374 40.8724 24.4815C40.5915 24.0146 40.2783 22.8431 39.9109 22.2125C39.5436 21.5819 39.2735 21.0592 38.9818 20.3866C38.6901 19.7139 38.4848 19.2922 38.085 18.6547C37.6853 18.0173 37.2964 17.324 36.8858 16.4807C36.6513 15.999 36.4139 15.4317 36.2514 15.0239C36.2114 14.9234 36.3492 14.9086 36.4442 14.9963C36.9194 15.4347 37.4251 15.6585 37.9447 15.9788C38.3877 16.2183 39.8895 16.8283 40.1596 16.6531C40.4297 16.4779 39.425 15.6536 39.0036 15.4768C38.5822 15.3001 38.5498 15.2059 38.2689 15.0008C38.072 14.8571 37.6895 14.7408 37.4596 14.6849C37.4095 14.6727 37.3555 14.628 37.332 14.579C37.1599 14.2205 36.9515 13.9056 36.8368 13.7494C36.8139 13.7182 36.8036 13.6855 36.8086 13.6608C36.8524 13.4454 36.7468 13.3819 36.5834 13.0723C36.4106 12.7447 36.2918 12.138 35.9028 11.5318C35.5139 10.9257 35.3842 10.8109 34.9737 10.2293C34.5631 9.64773 33.904 9.12961 33.3854 8.93214C32.8668 8.73466 32.7696 8.714 32.5859 8.35509C32.4022 7.99618 32.856 8.17987 32.9749 7.91435C33.0383 7.77265 32.9258 7.64532 32.7957 7.55738C32.7163 7.5037 32.6139 7.37483 32.592 7.30083C32.5642 7.20706 32.5077 7.06606 32.4023 6.86211C32.1322 6.33944 32.3375 6.58662 32.1646 5.91015C31.9918 5.23367 31.1707 4.59394 30.8681 4.41332C30.5656 4.2327 29.7877 4.06735 29.388 4.21501C28.9881 4.36266 29.1394 4.88916 28.9665 4.91057C28.7936 4.93198 28.7505 4.89372 28.6964 5.26026C28.6424 5.6268 28.8476 6.13569 28.9881 6.45634C29.1285 6.77698 28.9233 6.61703 28.9665 6.917C29.0097 7.21698 29.0961 7.29351 29.2582 7.58967C29.4202 7.88582 29.1069 7.76106 28.88 7.80007C28.6531 7.83908 28.1777 7.76711 27.7455 7.90788C27.3133 8.04864 27.3565 9.04651 27.4213 9.75818C27.4861 10.4698 27.0647 10.642 26.6649 10.8769C26.2651 11.1118 26.6108 11.8541 26.6865 12.0737C26.7621 12.2933 26.6108 12.2902 26.3623 12.441C26.1851 12.5485 26.2694 12.7686 26.3536 12.8973C26.3715 12.9247 26.3832 12.9532 26.3756 12.9725C26.3524 13.0319 26.2766 13.1324 26.0922 13.2269C25.8112 13.3707 25.7032 13.5804 25.6275 13.8841Z" fill="white"/>
</svg>
