<svg width="48" height="49" viewBox="0 0 48 49" fill="none" xmlns="http://www.w3.org/2000/svg">
<path d="M25.7276 9.88696L26.8572 9.93699C26.9103 9.93934 26.9308 9.89554 26.9022 9.84069C26.7255 9.501 26.4172 8.90535 26.2725 8.61322C26.072 8.20851 26.0483 7.88631 25.9506 7.5907C25.8529 7.29511 25.682 6.87677 25.7084 6.63147C25.7347 6.3862 25.8107 5.9041 25.7898 5.72393C25.7689 5.54376 26.0637 5.14605 26.11 4.8643L26.1114 4.85546C26.1565 4.5813 26.1662 4.52224 26.3606 4.43479C26.5572 4.34641 26.724 4.27162 27.3394 4.34369C27.9547 4.41577 28.3105 4.70043 28.6754 4.84356C29.0404 4.98669 29.168 5.23881 29.6023 5.51197C30.0366 5.78514 30.4996 6.17905 30.8409 6.53025C31.1822 6.88145 31.6092 7.13939 31.9761 7.54401C32.3429 7.94862 32.4717 8.03647 32.7135 8.34585C32.9552 8.65524 33.2106 9.1596 33.3583 9.18109C33.506 9.20256 33.6606 8.75384 33.7243 8.6297C33.788 8.50555 33.8396 8.53771 34.1682 8.5896C34.4968 8.6415 34.3643 8.56095 34.5718 8.48051C34.7794 8.4001 35.3593 8.46307 35.6656 8.52897C35.972 8.59489 36.4156 8.58458 36.6378 8.5197C36.86 8.45482 37.3921 8.49337 37.7316 8.56815C38.0712 8.64294 38.7364 9.18774 39.0569 9.34384C39.3774 9.49993 39.5617 9.58282 39.7823 9.75691C40.0029 9.93098 40.6502 10.938 40.7006 11.1195C40.7511 11.301 40.7141 11.3143 40.921 11.8537C41.128 12.3931 41.1851 12.6795 41.2311 12.9728C41.2772 13.2661 41.2377 13.6228 41.2661 13.7884C41.2946 13.954 41.0746 14.2206 40.9889 14.3288C40.9031 14.437 40.6455 14.8065 40.5473 15.1009C40.4492 15.3953 40.346 15.3459 40.2081 15.5115C40.1161 15.6221 39.8508 15.8196 39.669 15.9471C39.6247 15.9782 39.6583 16.0701 39.7295 16.1247C40.2368 16.5136 41.5263 17.666 41.7915 17.994C42.092 18.3658 42.3394 18.6456 42.5212 18.8404C42.703 19.0352 42.7114 19.1177 42.7616 19.344C42.8118 19.5703 43.0467 19.8197 43.1086 19.9494C43.1705 20.0791 43.3242 20.3099 43.3782 20.514C43.4322 20.718 43.5595 21.0299 43.6182 21.3237C43.677 21.6176 43.7939 21.8692 43.8925 22.0454C43.9911 22.2215 43.9187 22.5245 43.8369 22.5956C43.7551 22.6667 43.6399 22.7586 43.5502 22.904C43.4604 23.0494 43.1742 23.2832 42.9267 23.2648C42.6791 23.2463 42.4977 23.2906 42.25 23.302C42.0022 23.3135 41.8112 23.1407 41.3386 23.06C40.866 22.9793 40.7042 22.8676 40.4939 22.806C40.2836 22.7444 39.5579 22.3911 39.3444 22.2622C39.1309 22.1332 38.4014 21.7872 38.1065 21.6696C37.9349 21.6011 37.677 21.3961 37.4836 21.2262C37.4076 21.1594 37.294 21.157 37.2717 21.2147C37.2377 21.3025 37.1856 21.3993 37.1687 21.5235C37.1414 21.7239 36.9577 22.0967 36.8829 22.2278C36.808 22.3589 36.6315 22.7619 36.6049 22.8578C36.5784 22.9537 36.4374 23.0371 36.2769 23.0598C36.1163 23.0826 36.122 23.2098 36.0365 23.2732C35.9511 23.3367 35.851 23.3696 35.7578 23.4924C35.6645 23.6152 35.5283 23.542 35.3468 23.5862C35.1654 23.6305 35.2087 23.7818 35.0461 23.7745C34.8835 23.7674 34.6785 23.7016 34.4918 23.75C34.3051 23.7983 33.8506 23.9979 33.4562 23.8386C33.0618 23.6793 33.2386 23.7766 32.9122 23.6235C32.5858 23.4701 32.2419 23.0529 32.0797 22.9859C31.9175 22.919 31.419 22.3144 31.306 22.0778C31.1931 21.8413 30.9867 21.7575 30.7926 21.4875C30.5986 21.2175 30.577 21.1269 30.489 21.0334C30.4009 20.9399 30.3574 20.8185 30.2552 20.6347C30.1529 20.4509 30.0717 20.4473 29.9407 20.1428C29.8097 19.8382 29.6049 19.0001 29.5283 18.8399C29.4518 18.6797 29.3447 18.6675 29.317 18.3974C29.2893 18.1273 29.3235 18.0018 29.2852 17.8394C29.2469 17.6769 29.2179 17.6984 29.2305 17.5496C29.2382 17.4586 29.2439 17.2731 29.2471 17.1347C29.2483 17.0794 29.1831 17.0086 29.1154 16.9881C29.0336 16.9633 28.9305 16.9281 28.8291 16.8843C28.6123 16.7906 27.9378 16.6298 27.679 16.5809C27.4202 16.5321 27.4267 16.2612 27.0058 16.2332C26.5849 16.2052 25.7777 15.7675 25.6956 15.5955C25.6134 15.4236 25.0338 15.0052 24.8169 14.9302C24.5999 14.8551 24.458 14.6338 24.2396 14.4558C24.0212 14.2779 23.7451 13.9945 23.4602 13.7201C23.1753 13.4457 23.4244 13.4941 23.2595 13.2998C23.0947 13.1055 23.2636 13.1574 23.0844 12.7821C22.9052 12.4067 22.8156 12.2191 23.0378 11.9393C23.2601 11.6594 23.026 11.3558 23.4721 10.9393C23.9182 10.5228 24.2155 10.2604 24.7736 10.0785C25.3318 9.89653 25.0459 9.85675 25.7276 9.88696Z" fill="white"/>
</svg>
